<svg width="1920" height="536" viewBox="0 0 1920 536" fill="none" xmlns="http://www.w3.org/2000/svg">
<rect width="1920" height="536" fill="#E9F0FF"/>
<mask id="mask0_227_363" style="mask-type:alpha" maskUnits="userSpaceOnUse" x="0" y="0" width="1920" height="536">
<rect width="1920" height="536" fill="#E9F0FF"/>
</mask>
<g mask="url(#mask0_227_363)">
<path d="M780.198 399.374H794.478C796.465 399.374 798.081 397.757 798.081 395.773V376.678H817.178C819.168 376.678 820.784 375.061 820.784 373.077V358.797C820.784 356.813 819.168 355.2 817.178 355.2H798.081V336.098C798.081 334.114 796.465 332.5 794.478 332.5H780.198C778.207 332.5 776.591 334.114 776.591 336.098V355.2H757.488C755.497 355.2 753.881 356.813 753.881 358.797V373.077C753.881 375.065 755.501 376.678 757.488 376.678H776.591V395.773C776.591 397.761 778.207 399.374 780.198 399.374ZM817.178 355.777C818.844 355.777 820.199 357.13 820.199 358.794V373.074C820.199 374.74 818.844 376.09 817.178 376.09H797.496V395.773C797.496 397.44 796.141 398.794 794.475 398.794H780.194C778.525 398.794 777.173 397.44 777.173 395.773V376.094H757.488C755.818 376.094 754.466 374.74 754.466 373.074V358.794C754.466 357.13 755.822 355.777 757.488 355.777H777.173V336.094C777.173 334.431 778.528 333.077 780.194 333.077H794.475C796.141 333.077 797.496 334.431 797.496 336.094V355.777H817.178Z" fill="#85D9EB" fill-opacity="0.4"/>
<path d="M1170.29 356.027H1184.57C1186.56 356.027 1188.17 354.407 1188.17 352.419V333.32H1207.27C1209.26 333.32 1210.88 331.703 1210.88 329.719V315.44C1210.88 313.456 1209.26 311.842 1207.27 311.842H1188.17V292.74C1188.17 290.756 1186.56 289.139 1184.57 289.139H1170.29C1168.3 289.139 1166.68 290.756 1166.68 292.74V311.842H1147.59C1145.6 311.842 1143.98 313.456 1143.98 315.44V329.719C1143.98 331.703 1145.6 333.32 1147.59 333.32H1166.68V352.419C1166.68 354.407 1168.3 356.027 1170.29 356.027ZM1207.27 312.423C1208.94 312.423 1210.3 313.776 1210.3 315.44V329.719C1210.3 331.383 1208.94 332.736 1207.27 332.736H1187.59V352.419C1187.59 354.086 1186.24 355.443 1184.57 355.443H1170.3C1168.63 355.443 1167.26 354.086 1167.26 352.419V332.736H1147.59C1145.92 332.736 1144.56 331.383 1144.56 329.719V315.44C1144.56 313.776 1145.92 312.423 1147.59 312.423H1167.26V292.74C1167.26 291.076 1168.62 289.723 1170.3 289.723H1184.57C1186.24 289.723 1187.59 291.076 1187.59 292.74V312.423H1207.27Z" fill="#85D9EB" fill-opacity="0.4"/>
<path d="M1144.28 481.765H1158.56C1160.55 481.765 1162.17 480.144 1162.17 478.157V459.054H1181.27C1183.25 459.054 1184.87 457.441 1184.87 455.457V441.184C1184.87 439.197 1183.25 437.576 1181.27 437.576H1162.17V418.477C1162.17 416.49 1160.55 414.876 1158.56 414.876H1144.28C1142.29 414.876 1140.67 416.49 1140.67 418.477V437.576H1121.59C1119.59 437.576 1117.97 439.197 1117.97 441.184V455.457C1117.97 457.441 1119.59 459.054 1121.59 459.054H1140.67V478.157C1140.67 480.144 1142.29 481.765 1144.28 481.765ZM1181.27 438.16C1182.93 438.16 1184.29 439.517 1184.29 441.184V455.457C1184.29 457.12 1182.93 458.474 1181.27 458.474H1161.58V478.157C1161.58 479.823 1160.23 481.181 1158.56 481.181H1144.28C1142.61 481.181 1141.25 479.823 1141.25 478.157V458.474H1121.58C1119.91 458.474 1118.55 457.12 1118.55 455.457V441.184C1118.55 439.517 1119.91 438.16 1121.58 438.16H1141.25V418.477C1141.25 416.814 1142.61 415.46 1144.28 415.46H1158.56C1160.23 415.46 1161.58 416.814 1161.58 418.477V438.16H1181.27Z" fill="#85D9EB" fill-opacity="0.4"/>
<path d="M1560.56 373.918H1574.84C1576.83 373.918 1578.45 372.305 1578.45 370.317V351.218H1597.54C1599.53 351.218 1601.15 349.605 1601.15 347.617V333.337C1601.15 331.353 1599.53 329.74 1597.54 329.74H1578.45V310.638C1578.45 308.654 1576.83 307.04 1574.84 307.04H1560.56C1558.57 307.04 1556.95 308.654 1556.95 310.638V329.74H1537.86C1535.87 329.74 1534.25 331.353 1534.25 333.337V347.617C1534.25 349.605 1535.87 351.218 1537.86 351.218H1556.95V370.317C1556.95 372.305 1558.57 373.918 1560.56 373.918ZM1597.54 330.324C1599.21 330.324 1600.57 331.678 1600.57 333.341V347.621C1600.57 349.284 1599.21 350.638 1597.54 350.638H1577.86V370.321C1577.86 371.984 1576.51 373.338 1574.84 373.338H1560.56C1558.89 373.338 1557.54 371.984 1557.54 370.321V350.638H1537.86C1536.2 350.638 1534.84 349.284 1534.84 347.621V333.341C1534.84 331.678 1536.2 330.324 1537.86 330.324H1557.54V310.641C1557.54 308.978 1558.9 307.624 1560.56 307.624H1574.84C1576.51 307.624 1577.86 308.978 1577.86 310.641V330.324H1597.54Z" fill="#85D9EB" fill-opacity="0.4"/>
<path d="M869.457 550.488H883.737C885.724 550.488 887.344 548.871 887.344 546.887V527.788H906.444C908.434 527.788 910.054 526.171 910.054 524.187V509.907C910.054 507.92 908.431 506.306 906.444 506.306H887.344V487.208C887.344 485.22 885.724 483.606 883.737 483.606H869.457C867.466 483.606 865.85 485.22 865.85 487.208V506.306H846.743C844.763 506.306 843.147 507.92 843.147 509.907V524.187C843.147 526.171 844.76 527.788 846.743 527.788H865.85V546.887C865.85 548.871 867.466 550.488 869.457 550.488ZM906.44 506.894C908.11 506.894 909.465 508.248 909.465 509.911V524.191C909.465 525.854 908.106 527.208 906.44 527.208H886.759V546.891C886.759 548.554 885.403 549.907 883.737 549.907H869.457C867.791 549.907 866.435 548.554 866.435 546.891V527.208H846.743C845.084 527.208 843.732 525.854 843.732 524.191V509.911C843.732 508.248 845.081 506.894 846.743 506.894H866.435V487.211C866.435 485.548 867.791 484.194 869.457 484.194H883.737C885.403 484.194 886.759 485.548 886.759 487.211V506.894H906.44Z" fill="#85D9EB" fill-opacity="0.4"/>
<path d="M1220.54 583.628H1234.82C1236.81 583.628 1238.43 582.011 1238.43 580.027V560.928H1257.52C1259.51 560.928 1261.13 559.311 1261.13 557.327V543.047C1261.13 541.06 1259.51 539.446 1257.52 539.446H1238.43V520.347C1238.43 518.36 1236.81 516.746 1234.82 516.746H1220.54C1218.55 516.746 1216.93 518.36 1216.93 520.347V539.446H1197.84C1195.85 539.446 1194.23 541.06 1194.23 543.047V557.327C1194.23 559.311 1195.85 560.928 1197.84 560.928H1216.93V580.027C1216.93 582.011 1218.55 583.628 1220.54 583.628ZM1257.52 540.034C1259.19 540.034 1260.55 541.387 1260.55 543.051V557.33C1260.55 558.994 1259.19 560.347 1257.52 560.347H1237.84V580.03C1237.84 581.694 1236.48 583.047 1234.82 583.047H1220.54C1218.87 583.047 1217.52 581.694 1217.52 580.03V560.347H1197.84C1196.17 560.347 1194.81 558.994 1194.81 557.33V543.051C1194.81 541.387 1196.17 540.034 1197.84 540.034H1217.52V520.351C1217.52 518.687 1218.87 517.334 1220.54 517.334H1234.82C1236.48 517.334 1237.84 518.687 1237.84 520.351V540.034H1257.52Z" fill="#85D9EB" fill-opacity="0.4"/>
<path d="M1604.12 533.587H1618.41C1620.4 533.587 1622.02 531.973 1622.02 529.986V510.887H1641.12C1643.11 510.887 1644.72 509.27 1644.72 507.286V493.006C1644.72 491.022 1643.1 489.405 1641.12 489.405H1622.02V470.306C1622.02 468.322 1620.4 466.705 1618.41 466.705H1604.12C1602.14 466.705 1600.53 468.322 1600.53 470.306V489.405H1581.43C1579.44 489.405 1577.83 491.022 1577.83 493.006V507.286C1577.83 509.27 1579.44 510.887 1581.43 510.887H1600.53V529.986C1600.53 531.973 1602.14 533.587 1604.12 533.587ZM1641.11 489.993C1642.78 489.993 1644.13 491.346 1644.13 493.01V507.289C1644.13 508.953 1642.78 510.306 1641.11 510.306H1621.43V529.989C1621.43 531.653 1620.07 533.006 1618.4 533.006H1604.12C1602.46 533.006 1601.11 531.653 1601.11 529.989V510.306H1581.42C1579.76 510.306 1578.41 508.953 1578.41 507.289V493.01C1578.41 491.346 1579.76 489.993 1581.42 489.993H1601.11V470.31C1601.11 468.646 1602.46 467.293 1604.12 467.293H1618.4C1620.07 467.293 1621.43 468.646 1621.43 470.31V489.993H1641.11Z" fill="#85D9EB" fill-opacity="0.4"/>
<path d="M293.42 492.048H307.7C309.691 492.048 311.307 490.435 311.307 488.451V469.348H330.403C332.39 469.348 334.006 467.731 334.006 465.744V451.471C334.006 449.484 332.39 447.863 330.403 447.863H311.307V428.764C311.307 426.777 309.691 425.163 307.7 425.163H293.42C291.433 425.163 289.813 426.777 289.813 428.764V447.863H270.706C268.719 447.863 267.103 449.484 267.103 451.471V465.744C267.103 467.731 268.719 469.348 270.706 469.348H289.813V488.451C289.813 490.435 291.433 492.048 293.42 492.048ZM330.403 448.447C332.069 448.447 333.424 449.804 333.424 451.471V465.744C333.424 467.411 332.069 468.768 330.403 468.768H310.722V488.451C310.722 490.114 309.366 491.468 307.7 491.468H293.42C291.754 491.468 290.398 490.114 290.398 488.451V468.768H270.706C269.044 468.768 267.688 467.411 267.688 465.744V451.471C267.688 449.804 269.044 448.447 270.706 448.447H290.398V428.764C290.398 427.101 291.754 425.747 293.42 425.747H307.7C309.366 425.747 310.722 427.101 310.722 428.764V448.447H330.403Z" fill="#85D9EB" fill-opacity="0.4"/>
<path d="M388.342 574.353H402.622C404.613 574.353 406.229 572.739 406.229 570.752V551.653H425.336C427.323 551.653 428.942 550.039 428.942 548.052V533.772C428.942 531.788 427.323 530.175 425.336 530.175H406.229V511.072C406.229 509.088 404.613 507.475 402.622 507.475H388.342C386.355 507.475 384.739 509.088 384.739 511.072V530.175H365.632C363.648 530.175 362.036 531.788 362.036 533.772V548.052C362.036 550.039 363.648 551.653 365.632 551.653H384.739V570.752C384.739 572.739 386.355 574.353 388.342 574.353ZM425.332 530.759C426.998 530.759 428.354 532.112 428.354 533.776V548.055C428.354 549.722 426.998 551.076 425.332 551.076H405.644V570.755C405.644 572.422 404.285 573.776 402.619 573.776H388.338C386.672 573.776 385.317 572.422 385.317 570.755V551.076H365.628C363.97 551.076 362.618 549.722 362.618 548.055V533.776C362.618 532.112 363.97 530.759 365.628 530.759H385.317V511.076C385.317 509.412 386.672 508.059 388.338 508.059H402.619C404.285 508.059 405.644 509.412 405.644 511.076V530.759H425.332Z" fill="#85D9EB" fill-opacity="0.4"/>
<path d="M89.9724 419.354H104.249C106.24 419.354 107.856 417.741 107.856 415.757V396.654H126.955C128.943 396.654 130.559 395.041 130.559 393.053V378.774C130.559 376.79 128.943 375.173 126.955 375.173H107.856V356.077C107.856 354.09 106.24 352.473 104.249 352.473H89.9724C87.9818 352.473 86.3657 354.09 86.3657 356.077V375.173H67.266C65.2754 375.173 63.6593 376.79 63.6593 378.774V393.053C63.6593 395.041 65.2754 396.654 67.266 396.654H86.3657V415.757C86.3657 417.741 87.9854 419.354 89.9724 419.354ZM126.955 375.76C128.621 375.76 129.973 377.114 129.973 378.777V393.057C129.973 394.724 128.621 396.077 126.955 396.077H107.271V415.76C107.271 417.424 105.915 418.777 104.249 418.777H89.9724C88.3064 418.777 86.9508 417.424 86.9508 415.76V396.077H67.266C65.5965 396.077 64.2444 394.724 64.2444 393.057V378.777C64.2444 377.114 65.6 375.76 67.266 375.76H86.9508V356.081C86.9508 354.414 88.31 353.06 89.9724 353.06H104.249C105.915 353.06 107.271 354.414 107.271 356.081V375.76H126.955Z" fill="#85D9EB" fill-opacity="0.4"/>
<path d="M1310.72 377.102H1324.99C1326.99 377.102 1328.61 375.488 1328.61 373.504V354.402H1347.7C1349.69 354.402 1351.31 352.788 1351.31 350.804V336.525C1351.31 334.537 1349.69 332.924 1347.7 332.924H1328.61V313.825C1328.61 311.837 1326.99 310.224 1324.99 310.224H1310.72C1308.73 310.224 1307.12 311.837 1307.12 313.825V332.924H1288.02C1286.03 332.924 1284.42 334.537 1284.42 336.525V350.804C1284.42 352.788 1286.04 354.402 1288.02 354.402H1307.12V373.504C1307.12 375.488 1308.73 377.102 1310.72 377.102ZM1347.7 333.508C1349.37 333.508 1350.73 334.861 1350.73 336.525V350.804C1350.73 352.468 1349.37 353.821 1347.7 353.821H1328.03V373.504C1328.03 375.168 1326.67 376.521 1324.99 376.521H1310.72C1309.05 376.521 1307.7 375.168 1307.7 373.504V353.821H1288.02C1286.35 353.821 1285 352.468 1285 350.804V336.525C1285 334.861 1286.35 333.508 1288.02 333.508H1307.7V313.825C1307.7 312.161 1309.06 310.808 1310.72 310.808H1324.99C1326.66 310.808 1328.03 312.161 1328.03 313.825V333.508H1347.7Z" fill="#85D9EB" fill-opacity="0.4"/>
<path d="M1478.46 458.897H1492.73C1494.73 458.897 1496.35 457.283 1496.35 455.299V436.197H1515.44C1517.43 436.197 1519.05 434.583 1519.05 432.599V418.32C1519.05 416.332 1517.43 414.719 1515.44 414.719H1496.35V395.616C1496.35 393.632 1494.73 392.019 1492.73 392.019H1478.46C1476.48 392.019 1474.86 393.632 1474.86 395.616V414.719H1455.76C1453.77 414.719 1452.16 416.332 1452.16 418.32V432.599C1452.16 434.583 1453.77 436.197 1455.76 436.197H1474.86V455.299C1474.86 457.283 1476.48 458.897 1478.46 458.897ZM1515.44 415.303C1517.11 415.303 1518.46 416.656 1518.46 418.32V432.599C1518.46 434.263 1517.11 435.616 1515.44 435.616H1495.77V455.299C1495.77 456.963 1494.41 458.316 1492.74 458.316H1478.47C1476.8 458.316 1475.45 456.963 1475.45 455.299V435.616H1455.76C1454.09 435.616 1452.74 434.263 1452.74 432.599V418.32C1452.74 416.656 1454.09 415.303 1455.76 415.303H1475.45V395.616C1475.45 393.953 1476.8 392.599 1478.47 392.599H1492.74C1494.41 392.599 1495.77 393.953 1495.77 395.616V415.303H1515.44Z" fill="#85D9EB" fill-opacity="0.4"/>
<path d="M923.236 452.508H937.516C939.5 452.508 941.112 450.894 941.112 448.907V429.808H960.216C962.206 429.808 963.822 428.187 963.822 426.2V411.927C963.822 409.94 962.206 408.319 960.216 408.319H941.112V389.22C941.112 387.236 939.5 385.619 937.516 385.619H923.236C921.245 385.619 919.622 387.236 919.622 389.22V408.319H900.533C898.543 408.319 896.923 409.94 896.923 411.927V426.2C896.923 428.187 898.543 429.808 900.533 429.808H919.622V448.907C919.622 450.894 921.245 452.508 923.236 452.508ZM960.216 408.903C961.882 408.903 963.237 410.26 963.237 411.927V426.2C963.237 427.867 961.882 429.224 960.216 429.224H940.527V448.907C940.527 450.574 939.175 451.924 937.516 451.924H923.236C921.567 451.924 920.207 450.57 920.207 448.907V429.224H900.533C898.864 429.224 897.508 427.867 897.508 426.2V411.927C897.508 410.26 898.867 408.903 900.533 408.903H920.207V389.22C920.207 387.557 921.567 386.203 923.236 386.203H937.516C939.175 386.203 940.527 387.557 940.527 389.22V408.903H960.216Z" fill="#85D9EB" fill-opacity="0.4"/>
<path d="M869.457 343.952H883.737C885.721 343.952 887.333 342.339 887.333 340.351V321.256H906.44C908.427 321.256 910.043 319.639 910.043 317.655V303.375C910.043 301.388 908.427 299.774 906.44 299.774H887.333V280.675C887.333 278.688 885.721 277.074 883.737 277.074H869.457C867.466 277.074 865.843 278.688 865.843 280.675V299.774H846.747C844.76 299.774 843.144 301.388 843.144 303.375V317.655C843.144 319.642 844.76 321.256 846.747 321.256H865.843V340.351C865.843 342.339 867.466 343.952 869.457 343.952ZM906.44 300.358C908.106 300.358 909.462 301.708 909.462 303.375V317.655C909.462 319.322 908.106 320.675 906.44 320.675H886.748V340.355C886.748 342.022 885.399 343.375 883.737 343.375H869.457C867.787 343.375 866.428 342.022 866.428 340.355V320.675H846.747C845.081 320.675 843.725 319.322 843.725 317.655V303.375C843.725 301.708 845.081 300.358 846.747 300.358H866.428V280.675C866.428 279.008 867.787 277.655 869.457 277.655H883.737C885.399 277.655 886.748 279.008 886.748 280.675V300.358H906.44Z" fill="#85D9EB" fill-opacity="0.4"/>
<path d="M591.187 452.508H605.467C607.454 452.508 609.07 450.894 609.07 448.91V429.808H628.177C630.16 429.808 631.776 428.191 631.776 426.203V411.927C631.776 409.94 630.164 408.319 628.177 408.319H609.07V389.22C609.07 387.236 607.454 385.619 605.467 385.619H591.187C589.196 385.619 587.576 387.236 587.576 389.22V408.319H568.487C566.497 408.319 564.877 409.94 564.877 411.927V426.203C564.877 428.191 566.497 429.808 568.487 429.808H587.576V448.91C587.576 450.894 589.196 452.508 591.187 452.508ZM628.177 408.903C629.836 408.903 631.188 410.26 631.188 411.927V426.203C631.188 427.87 629.836 429.227 628.177 429.227H608.489V448.91C608.489 450.574 607.133 451.927 605.467 451.927H591.187C589.517 451.927 588.161 450.574 588.161 448.91V429.227H568.487C566.818 429.227 565.459 427.87 565.459 426.203V411.927C565.459 410.26 566.818 408.903 568.487 408.903H588.161V389.22C588.161 387.557 589.521 386.203 591.187 386.203H605.467C607.133 386.203 608.489 387.557 608.489 389.22V408.903H628.177Z" fill="#85D9EB" fill-opacity="0.4"/>
<path d="M334.549 356.027H348.83C350.81 356.027 352.426 354.407 352.426 352.419V333.32H371.529C373.513 333.32 375.125 331.703 375.125 329.719V315.44C375.125 313.456 373.513 311.842 371.529 311.842H352.426V292.74C352.426 290.756 350.81 289.139 348.83 289.139H334.549C332.559 289.139 330.936 290.756 330.936 292.74V311.842H311.847C309.849 311.842 308.226 313.456 308.226 315.44V329.719C308.226 331.703 309.849 333.32 311.847 333.32H330.936V352.419C330.936 354.407 332.559 356.027 334.549 356.027ZM371.529 312.423C373.188 312.423 374.54 313.776 374.54 315.44V329.719C374.54 331.383 373.188 332.736 371.529 332.736H351.841V352.419C351.841 354.086 350.489 355.443 348.83 355.443H334.549C332.88 355.443 331.521 354.086 331.521 352.419V332.736H311.847C310.173 332.736 308.811 331.383 308.811 329.719V315.44C308.811 313.776 310.173 312.423 311.847 312.423H331.521V292.74C331.521 291.076 332.88 289.723 334.549 289.723H348.83C350.489 289.723 351.841 291.076 351.841 292.74V312.423H371.529Z" fill="#85D9EB" fill-opacity="0.4"/>
<path d="M188.91 458.897H203.191C205.174 458.897 206.786 457.28 206.786 455.296V436.197H225.893C227.873 436.197 229.489 434.58 229.489 432.596V418.317C229.489 416.329 227.873 414.716 225.893 414.716H206.786V395.613C206.786 393.629 205.174 392.016 203.191 392.016H188.91C186.92 392.016 185.296 393.629 185.296 395.613V414.716H166.2C164.21 414.716 162.586 416.329 162.586 418.317V432.596C162.586 434.58 164.21 436.197 166.2 436.197H185.296V455.296C185.296 457.28 186.92 458.897 188.91 458.897ZM225.893 415.303C227.552 415.303 228.904 416.657 228.904 418.32V432.6C228.904 434.263 227.552 435.617 225.893 435.617H206.201V455.3C206.201 456.963 204.849 458.317 203.191 458.317H188.91C187.241 458.317 185.878 456.963 185.878 455.3V435.617H166.2C164.531 435.617 163.172 434.263 163.172 432.6V418.32C163.172 416.657 164.531 415.303 166.2 415.303H185.878V395.617C185.878 393.953 187.237 392.6 188.91 392.6H203.191C204.849 392.6 206.201 393.953 206.201 395.617V415.303H225.893Z" fill="#85D9EB" fill-opacity="0.4"/>
<path d="M511.385 343.956H525.665C527.652 343.956 529.272 342.339 529.272 340.355V321.256H548.375C550.359 321.256 551.975 319.639 551.975 317.655V303.375C551.975 301.388 550.362 299.774 548.375 299.774H529.272V280.675C529.272 278.688 527.652 277.074 525.665 277.074H511.385C509.394 277.074 507.775 278.688 507.775 280.675V299.774H488.689C486.699 299.774 485.075 301.388 485.075 303.375V317.655C485.075 319.642 486.699 321.256 488.689 321.256H507.775V340.355C507.775 342.339 509.398 343.956 511.385 343.956ZM548.375 300.362C550.038 300.362 551.39 301.712 551.39 303.379V317.658C551.39 319.325 550.038 320.679 548.375 320.679H528.687V340.362C528.687 342.025 527.331 343.379 525.665 343.379H511.385C509.715 343.379 508.36 342.025 508.36 340.362V320.679H488.689C487.02 320.679 485.657 319.325 485.657 317.658V303.379C485.657 301.712 487.016 300.362 488.689 300.362H508.36V280.679C508.36 279.012 509.719 277.658 511.385 277.658H525.665C527.331 277.658 528.687 279.012 528.687 280.679V300.362H548.375Z" fill="#85D9EB" fill-opacity="0.4"/>
<path d="M675.384 373.918H703.303C707.038 373.918 710.077 370.887 710.077 367.165V329.53H747.695C751.43 329.53 754.47 326.502 754.47 322.776V294.851C754.47 291.122 751.43 288.094 747.695 288.094H710.077V250.459C710.077 246.737 707.041 243.706 703.303 243.706H675.384C671.649 243.706 668.606 246.737 668.606 250.459V288.094H630.988C627.253 288.094 624.214 291.125 624.214 294.851V322.776C624.214 326.506 627.253 329.53 630.988 329.53H668.606V367.165C668.606 370.89 671.649 373.918 675.384 373.918ZM747.695 288.675C751.109 288.675 753.885 291.442 753.885 294.848V322.773C753.885 326.178 751.109 328.946 747.695 328.946H709.496V367.161C709.496 370.566 706.717 373.33 703.306 373.33H675.388C671.974 373.33 669.195 370.563 669.195 367.161V328.946H630.992C627.578 328.946 624.802 326.178 624.802 322.773V294.848C624.802 291.442 627.578 288.675 630.992 288.675H669.195V250.456C669.195 247.054 671.974 244.287 675.388 244.287H703.306C706.72 244.287 709.496 247.054 709.496 250.456V288.675H747.695Z" fill="#85D9EB" fill-opacity="0.4"/>
<path d="M1048.57 419.354H1076.48C1080.22 419.354 1083.26 416.322 1083.26 412.6V374.969H1120.88C1124.62 374.969 1127.66 371.938 1127.66 368.212V340.283C1127.66 336.557 1124.62 333.53 1120.88 333.53H1083.26V295.898C1083.26 292.169 1080.22 289.142 1076.48 289.142H1048.57C1044.83 289.142 1041.79 292.173 1041.79 295.898V333.53H1004.18C1000.44 333.53 997.402 336.561 997.402 340.283V368.212C997.402 371.938 1000.44 374.969 1004.18 374.969H1041.79V412.6C1041.79 416.326 1044.83 419.354 1048.57 419.354ZM1120.88 334.107C1124.29 334.107 1127.07 336.878 1127.07 340.28V368.208C1127.07 371.614 1124.29 374.381 1120.88 374.381H1082.67V412.597C1082.67 416.002 1079.9 418.769 1076.48 418.769H1048.57C1045.16 418.769 1042.38 416.002 1042.38 412.597V374.381H1004.18C1000.76 374.381 997.987 371.614 997.987 368.208V340.28C997.987 336.878 1000.76 334.107 1004.18 334.107H1042.38V295.895C1042.38 292.49 1045.16 289.722 1048.57 289.722H1076.48C1079.9 289.722 1082.67 292.49 1082.67 295.895V334.107H1120.88Z" fill="#85D9EB" fill-opacity="0.4"/>
<path d="M425.714 484.184H453.632C457.368 484.184 460.407 481.149 460.407 477.42V439.792H498.032C501.767 439.792 504.807 436.757 504.807 433.028V405.106C504.807 401.377 501.767 398.342 498.032 398.342H460.407V360.718C460.407 356.989 457.368 353.954 453.632 353.954H425.714C421.979 353.954 418.94 356.985 418.94 360.718V398.342H381.321C377.583 398.342 374.54 401.377 374.54 405.106V433.028C374.54 436.757 377.583 439.792 381.321 439.792H418.94V477.42C418.94 481.149 421.975 484.184 425.714 484.184ZM498.029 398.93C501.443 398.93 504.218 401.705 504.218 405.11V433.032C504.218 436.44 501.443 439.212 498.029 439.212H459.818V477.423C459.818 480.832 457.043 483.603 453.629 483.603H425.711C422.297 483.603 419.521 480.832 419.521 477.423V439.212H381.318C377.9 439.212 375.118 436.44 375.118 433.032V405.11C375.118 401.701 377.9 398.93 381.318 398.93H419.521V360.722C419.521 357.313 422.297 354.542 425.711 354.542H453.629C457.043 354.542 459.818 357.317 459.818 360.722V398.93H498.029Z" fill="#85D9EB" fill-opacity="0.4"/>
<path d="M729.99 549.003H757.905C761.64 549.003 764.68 545.972 764.68 542.239V504.614H802.298C806.033 504.614 809.072 501.58 809.072 497.85V469.929C809.072 466.199 806.033 463.165 802.298 463.165H764.68V425.54C764.68 421.811 761.64 418.776 757.905 418.776H729.99C726.252 418.776 723.209 421.808 723.209 425.54V463.165H685.591C681.856 463.165 678.816 466.199 678.816 469.929V497.847C678.816 501.576 681.856 504.611 685.591 504.611H723.209V542.235C723.209 545.964 726.252 548.999 729.99 548.999V549.003ZM802.301 463.752C805.715 463.752 808.491 466.524 808.491 469.932V497.854C808.491 501.263 805.715 504.034 802.301 504.034H764.098V542.242C764.098 545.651 761.323 548.422 757.909 548.422H729.994C726.576 548.422 723.797 545.647 723.797 542.242V504.034H685.594C682.18 504.034 679.405 501.263 679.405 497.854V469.936C679.405 466.527 682.18 463.756 685.594 463.756H723.797V425.548C723.797 422.139 726.576 419.368 729.994 419.368H757.909C761.323 419.368 764.098 422.142 764.098 425.548V463.756H802.301V463.752Z" fill="#85D9EB" fill-opacity="0.4"/>
<path d="M1014.41 620.408H1042.33C1046.06 620.408 1049.1 617.377 1049.1 613.655V576.02H1086.72C1090.45 576.02 1093.49 572.989 1093.49 569.267V541.338C1093.49 537.612 1090.45 534.585 1086.72 534.585H1049.1V496.95C1049.1 493.227 1046.06 490.196 1042.33 490.196H1014.41C1010.67 490.196 1007.63 493.227 1007.63 496.95V534.585H970.015C966.277 534.585 963.234 537.616 963.234 541.338V569.267C963.234 572.992 966.277 576.02 970.015 576.02H1007.63V613.655C1007.63 617.377 1010.67 620.408 1014.41 620.408ZM1086.72 535.165C1090.13 535.165 1092.91 537.933 1092.91 541.334V569.263C1092.91 572.668 1090.13 575.436 1086.72 575.436H1048.52V613.651C1048.52 617.053 1045.74 619.824 1042.33 619.824H1014.41C1011 619.824 1008.22 617.057 1008.22 613.651V575.436H970.019C966.601 575.436 963.822 572.668 963.822 569.263V541.334C963.822 537.933 966.601 535.165 970.019 535.165H1008.22V496.946C1008.22 493.544 1011 490.777 1014.41 490.777H1042.33C1045.74 490.777 1048.52 493.544 1048.52 496.946V535.165H1086.72Z" fill="#85D9EB" fill-opacity="0.4"/>
<path d="M0.173683 541.209H28.0885C31.8236 541.209 34.8631 538.181 34.8631 534.456V496.824H72.4811C76.2161 496.824 79.252 493.793 79.252 490.067V462.139C79.252 458.413 76.2161 455.385 72.4811 455.385H34.8631V417.754C34.8631 414.028 31.8236 410.997 28.0885 410.997H0.173683C-3.56494 410.997 -6.60784 414.028 -6.60784 417.754V455.385H-44.226C-47.9611 455.385 -51.0004 458.413 -51.0004 462.139V490.067C-51.0004 493.793 -47.9611 496.824 -44.226 496.824H-6.60784V534.456C-6.60784 538.181 -3.56494 541.209 0.173683 541.209ZM72.4847 455.966C75.8987 455.966 78.6742 458.734 78.6742 462.135V490.064C78.6742 493.469 75.8987 496.237 72.4847 496.237H34.2814V534.452C34.2814 537.857 31.5061 540.625 28.0922 540.625H0.177338C-3.24022 540.625 -6.02291 537.857 -6.02291 534.452V496.237H-44.2224C-47.6364 496.237 -50.4118 493.469 -50.4118 490.064V462.135C-50.4118 458.734 -47.6328 455.966 -44.2224 455.966H-6.02291V417.75C-6.02291 414.345 -3.24022 411.578 0.177338 411.578H28.0922C31.5061 411.578 34.2814 414.345 34.2814 417.75V455.966H72.4847Z" fill="#85D9EB" fill-opacity="0.4"/>
<path d="M201.885 630.081H229.8C233.538 630.081 236.581 627.046 236.581 623.317V585.689H274.199C277.934 585.689 280.974 582.658 280.974 578.925V551.004C280.974 547.274 277.934 544.239 274.199 544.239H236.581V506.612C236.581 502.882 233.538 499.848 229.8 499.848H201.885C198.15 499.848 195.11 502.882 195.11 506.612V544.239H157.492C153.757 544.239 150.718 547.274 150.718 551.004V578.925C150.718 582.654 153.757 585.689 157.492 585.689H195.11V623.317C195.11 627.046 198.146 630.081 201.885 630.081ZM274.199 544.831C277.613 544.831 280.389 547.602 280.389 551.011V578.932C280.389 582.341 277.613 585.112 274.199 585.112H235.996V623.321C235.996 626.729 233.214 629.5 229.8 629.5H201.885C198.471 629.5 195.695 626.729 195.695 623.321V585.112H157.496C154.082 585.112 151.306 582.341 151.306 578.932V551.011C151.306 547.602 154.085 544.831 157.496 544.831H195.695V506.619C195.695 503.21 198.474 500.439 201.885 500.439H229.8C233.214 500.439 235.996 503.21 235.996 506.619V544.831H274.199Z" fill="#85D9EB" fill-opacity="0.4"/>
<path d="M1464.48 637.868H1492.39C1496.13 637.868 1499.17 634.837 1499.17 631.115V593.484H1536.79C1540.52 593.484 1543.56 590.452 1543.56 586.727V558.798C1543.56 555.072 1540.52 552.045 1536.79 552.045H1499.17V514.413C1499.17 510.687 1496.13 507.656 1492.39 507.656H1464.48C1460.74 507.656 1457.71 510.687 1457.71 514.413V552.045H1420.09C1416.35 552.045 1413.31 555.076 1413.31 558.798V586.727C1413.31 590.452 1416.35 593.484 1420.09 593.484H1457.71V631.115C1457.71 634.841 1460.74 637.868 1464.48 637.868ZM1536.79 552.625C1540.2 552.625 1542.98 555.393 1542.98 558.794V586.723C1542.98 590.125 1540.2 592.896 1536.79 592.896H1498.59V631.111C1498.59 634.513 1495.81 637.284 1492.4 637.284H1464.48C1461.07 637.284 1458.29 634.517 1458.29 631.111V592.896H1420.09C1416.68 592.896 1413.9 590.125 1413.9 586.723V558.794C1413.9 555.393 1416.68 552.625 1420.09 552.625H1458.29V514.41C1458.29 511.004 1461.07 508.237 1464.48 508.237H1492.4C1495.81 508.237 1498.59 511.004 1498.59 514.41V552.625H1536.79Z" fill="#85D9EB" fill-opacity="0.4"/>
<path d="M537.733 637.869H565.648C569.383 637.869 572.423 634.838 572.423 631.116V593.484H610.041C613.779 593.484 616.822 590.453 616.822 586.731V558.802C616.822 555.076 613.779 552.049 610.041 552.049H572.423V514.417C572.423 510.692 569.383 507.664 565.648 507.664H537.733C533.998 507.664 530.959 510.695 530.959 514.417V552.049H493.33C489.595 552.049 486.559 555.08 486.559 558.802V586.731C486.559 590.453 489.595 593.484 493.33 593.484H530.959V631.116C530.959 634.841 533.998 637.869 537.733 637.869ZM610.041 552.626C613.458 552.626 616.237 555.393 616.237 558.795V586.724C616.237 590.125 613.458 592.897 610.041 592.897H571.838V631.112C571.838 634.514 569.062 637.285 565.648 637.285H537.733C534.319 637.285 531.544 634.517 531.544 631.112V592.897H493.33C489.916 592.897 487.141 590.129 487.141 586.724V558.795C487.141 555.393 489.916 552.626 493.33 552.626H531.544V514.41C531.544 511.005 534.319 508.238 537.733 508.238H565.648C569.062 508.238 571.838 511.005 571.838 514.41V552.626H610.041Z" fill="#85D9EB" fill-opacity="0.4"/>
<path d="M157.853 343.962H185.768C189.507 343.962 192.55 340.931 192.55 337.209V299.578H230.168C233.903 299.578 236.942 296.546 236.942 292.824V264.892C236.942 261.17 233.903 258.139 230.168 258.139H192.55V220.507C192.55 216.781 189.507 213.754 185.768 213.754H157.853C154.118 213.754 151.079 216.785 151.079 220.507V258.139H113.461C109.726 258.139 106.686 261.17 106.686 264.892V292.824C106.686 296.546 109.722 299.578 113.461 299.578H151.079V337.209C151.079 340.935 154.118 343.962 157.853 343.962ZM230.168 258.719C233.582 258.719 236.361 261.487 236.361 264.888V292.821C236.361 296.222 233.582 298.99 230.168 298.99H191.968V337.205C191.968 340.611 189.186 343.378 185.768 343.378H157.853C154.439 343.378 151.664 340.611 151.664 337.205V298.99H113.461C110.047 298.99 107.271 296.222 107.271 292.821V264.888C107.271 261.487 110.05 258.719 113.461 258.719H151.664V220.504C151.664 217.099 154.439 214.331 157.853 214.331H185.768C189.186 214.331 191.968 217.099 191.968 220.504V258.719H230.168Z" fill="#85D9EB" fill-opacity="0.4"/>
<path d="M1428.25 343.962H1456.17C1459.9 343.962 1462.94 340.931 1462.94 337.209V299.578H1500.56C1504.3 299.578 1507.33 296.546 1507.33 292.824V264.892C1507.33 261.17 1504.3 258.139 1500.56 258.139H1462.94V220.507C1462.94 216.781 1459.91 213.754 1456.17 213.754H1428.25C1424.52 213.754 1421.48 216.785 1421.48 220.507V258.139H1383.86C1380.12 258.139 1377.08 261.17 1377.08 264.892V292.824C1377.08 296.546 1380.12 299.578 1383.86 299.578H1421.48V337.209C1421.48 340.935 1424.52 343.962 1428.25 343.962ZM1500.56 258.719C1503.97 258.719 1506.75 261.487 1506.75 264.888V292.821C1506.75 296.222 1503.97 298.99 1500.56 298.99H1462.36V337.205C1462.36 340.611 1459.58 343.378 1456.17 343.378H1428.25C1424.84 343.378 1422.06 340.611 1422.06 337.205V298.99H1383.86C1380.44 298.99 1377.66 296.222 1377.66 292.821V264.888C1377.66 261.487 1380.44 258.719 1383.86 258.719H1422.06V220.504C1422.06 217.099 1424.84 214.331 1428.25 214.331H1456.17C1459.58 214.331 1462.36 217.099 1462.36 220.504V258.719H1500.56Z" fill="#85D9EB" fill-opacity="0.4"/>
<path d="M1298.58 529.014H1326.49C1330.22 529.014 1333.26 525.979 1333.26 522.25V484.626H1370.89C1374.62 484.626 1377.66 481.591 1377.66 477.862V449.94C1377.66 446.211 1374.62 443.176 1370.89 443.176H1333.26V405.548C1333.26 401.819 1330.22 398.784 1326.49 398.784H1298.58C1294.84 398.784 1291.8 401.819 1291.8 405.548V443.176H1254.18C1250.45 443.176 1247.41 446.207 1247.41 449.94V477.862C1247.41 481.591 1250.45 484.626 1254.18 484.626H1291.8V522.25C1291.8 525.979 1294.84 529.014 1298.58 529.014ZM1370.89 443.76C1374.31 443.76 1377.08 446.535 1377.08 449.94V477.862C1377.08 481.27 1374.3 484.042 1370.89 484.042H1332.68V522.25C1332.68 525.659 1329.9 528.43 1326.49 528.43H1298.58C1295.16 528.43 1292.39 525.659 1292.39 522.25V484.042H1254.19C1250.77 484.042 1248 481.27 1248 477.862V449.94C1248 446.531 1250.77 443.76 1254.19 443.76H1292.39V405.552C1292.39 402.143 1295.16 399.372 1298.58 399.372H1326.49C1329.91 399.372 1332.68 402.143 1332.68 405.552V443.76H1370.89Z" fill="#85D9EB" fill-opacity="0.4"/>
<path d="M1709.48 513.434H1737.4C1741.13 513.434 1744.17 510.399 1744.17 506.669V469.042H1781.79C1785.52 469.042 1788.56 466.011 1788.56 462.278V434.356C1788.56 430.627 1785.52 427.592 1781.79 427.592H1744.17V389.964C1744.17 386.235 1741.13 383.2 1737.4 383.2H1709.48C1705.74 383.2 1702.7 386.235 1702.7 389.964V427.592H1665.08C1661.34 427.592 1658.3 430.627 1658.3 434.356V462.278C1658.3 466.007 1661.35 469.042 1665.08 469.042H1702.7V506.669C1702.7 510.399 1705.74 513.434 1709.48 513.434ZM1781.79 428.183C1785.2 428.183 1787.98 430.954 1787.98 434.363V462.285C1787.98 465.694 1785.2 468.465 1781.79 468.465H1743.58V506.673C1743.58 510.082 1740.81 512.853 1737.4 512.853H1709.48C1706.06 512.853 1703.28 510.082 1703.28 506.673V468.465H1665.08C1661.66 468.465 1658.88 465.694 1658.88 462.285V434.363C1658.88 430.954 1661.66 428.183 1665.08 428.183H1703.28V389.971C1703.28 386.563 1706.06 383.791 1709.48 383.791H1737.4C1740.81 383.791 1743.58 386.563 1743.58 389.971V428.183H1781.79Z" fill="#85D9EB" fill-opacity="0.4"/>
<path d="M1301.73 15.838H1316.01C1317.99 15.838 1319.61 14.2173 1319.61 12.2298V-6.8691H1338.71C1340.7 -6.8691 1342.32 -8.4862 1342.32 -10.4702V-24.7498C1342.32 -26.7338 1340.7 -28.3473 1338.71 -28.3473H1319.61V-47.4497C1319.61 -49.4337 1317.99 -51.0508 1316.01 -51.0508H1301.73C1299.74 -51.0508 1298.12 -49.4337 1298.12 -47.4497V-28.3473H1279.03C1277.04 -28.3473 1275.41 -26.7338 1275.41 -24.7498V-10.4702C1275.41 -8.4862 1277.04 -6.8691 1279.03 -6.8691H1298.12V12.2298C1298.12 14.2173 1299.74 15.838 1301.73 15.838ZM1338.71 -27.7667C1340.38 -27.7667 1341.74 -26.4132 1341.74 -24.7498V-10.4702C1341.74 -8.80677 1340.38 -7.45325 1338.71 -7.45325H1319.03V12.2298C1319.03 13.8967 1317.68 15.2538 1316.01 15.2538H1301.73C1300.06 15.2538 1298.7 13.8967 1298.7 12.2298V-7.45325H1279.03C1277.36 -7.45325 1276 -8.80677 1276 -10.4702V-24.7498C1276 -26.4132 1277.36 -27.7667 1279.03 -27.7667H1298.7V-47.4497C1298.7 -49.1131 1300.06 -50.4666 1301.73 -50.4666H1316.01C1317.68 -50.4666 1319.03 -49.1131 1319.03 -47.4497V-27.7667H1338.71Z" fill="#85D9EB" fill-opacity="0.4"/>
<path d="M1275.72 141.58H1290C1291.99 141.58 1293.61 139.959 1293.61 137.972V118.87H1312.7C1314.69 118.87 1316.3 117.256 1316.3 115.272V101C1316.3 99.012 1314.69 97.3913 1312.7 97.3913H1293.61V78.2925C1293.61 76.305 1291.99 74.6914 1290 74.6914H1275.72C1273.73 74.6914 1272.11 76.305 1272.11 78.2925V97.3913H1253.02C1251.03 97.3913 1249.41 99.012 1249.41 101V115.272C1249.41 117.256 1251.03 118.87 1253.02 118.87H1272.11V137.972C1272.11 139.959 1273.73 141.58 1275.72 141.58ZM1312.7 97.9755C1314.37 97.9755 1315.72 99.3326 1315.72 101V115.272C1315.72 116.935 1314.37 118.289 1312.7 118.289H1293.02V137.972C1293.02 139.639 1291.66 140.996 1290 140.996H1275.71C1274.05 140.996 1272.69 139.639 1272.69 137.972V118.289H1253.02C1251.35 118.289 1249.98 116.935 1249.98 115.272V101C1249.98 99.3326 1251.34 97.9755 1253.02 97.9755H1272.69V78.2925C1272.69 76.6291 1274.05 75.2756 1275.71 75.2756H1290C1291.66 75.2756 1293.02 76.6291 1293.02 78.2925V97.9755H1312.7Z" fill="#85D9EB" fill-opacity="0.4"/>
<path d="M1692 33.7325H1706.28C1708.27 33.7325 1709.88 32.119 1709.88 30.1315V11.0326H1728.98C1730.97 11.0326 1732.59 9.41907 1732.59 7.43153V-6.84808C1732.59 -8.83205 1730.97 -10.4456 1728.98 -10.4456H1709.88V-29.548C1709.88 -31.532 1708.27 -33.1455 1706.28 -33.1455H1692C1690.01 -33.1455 1688.39 -31.532 1688.39 -29.548V-10.4456H1669.3C1667.31 -10.4456 1665.69 -8.83205 1665.69 -6.84808V7.43153C1665.69 9.41907 1667.31 11.0326 1669.3 11.0326H1688.39V30.1315C1688.39 32.119 1690.01 33.7325 1692 33.7325ZM1728.98 -9.86143C1730.65 -9.86143 1732 -8.50792 1732 -6.84451V7.4351C1732 9.0985 1730.65 10.452 1728.98 10.452H1709.3V30.135C1709.3 31.7984 1707.94 33.1519 1706.28 33.1519H1692C1690.33 33.1519 1688.98 31.7984 1688.98 30.135V10.452H1669.3C1667.63 10.452 1666.27 9.0985 1666.27 7.4351V-6.84451C1666.27 -8.50792 1667.63 -9.86143 1669.3 -9.86143H1688.98V-29.5444C1688.98 -31.2078 1690.33 -32.5614 1692 -32.5614H1706.28C1707.95 -32.5614 1709.3 -31.2078 1709.3 -29.5444V-9.86143H1728.98Z" fill="#85D9EB" fill-opacity="0.4"/>
<path d="M1351.98 243.443H1366.25C1368.25 243.443 1369.87 241.826 1369.87 239.842V220.743H1388.95C1390.95 220.743 1392.57 219.126 1392.57 217.142V202.863C1392.57 200.875 1390.95 199.261 1388.95 199.261H1369.87V180.163C1369.87 178.175 1368.25 176.562 1366.25 176.562H1351.98C1349.98 176.562 1348.37 178.175 1348.37 180.163V199.261H1329.27C1327.29 199.261 1325.67 200.875 1325.67 202.863V217.142C1325.67 219.126 1327.29 220.743 1329.27 220.743H1348.37V239.842C1348.37 241.826 1349.98 243.443 1351.98 243.443ZM1388.95 199.849C1390.62 199.849 1391.98 201.203 1391.98 202.866V217.146C1391.98 218.809 1390.62 220.163 1388.95 220.163H1369.28V239.846C1369.28 241.509 1367.92 242.863 1366.25 242.863H1351.98C1350.31 242.863 1348.95 241.509 1348.95 239.846V220.163H1329.27C1327.61 220.163 1326.25 218.809 1326.25 217.146V202.866C1326.25 201.203 1327.61 199.849 1329.27 199.849H1348.95V180.166C1348.95 178.503 1350.31 177.149 1351.98 177.149H1366.25C1367.92 177.149 1369.28 178.503 1369.28 180.166V199.849H1388.95Z" fill="#85D9EB" fill-opacity="0.4"/>
<path d="M1735.56 193.402H1749.84C1751.83 193.402 1753.45 191.789 1753.45 189.801V170.702H1772.55C1774.54 170.702 1776.16 169.085 1776.16 167.101V152.822C1776.16 150.838 1774.54 149.22 1772.55 149.22H1753.45V130.122C1753.45 128.138 1751.83 126.521 1749.84 126.521H1735.56C1733.58 126.521 1731.96 128.138 1731.96 130.122V149.22H1712.86C1710.88 149.22 1709.26 150.838 1709.26 152.822V167.101C1709.26 169.085 1710.88 170.702 1712.86 170.702H1731.96V189.801C1731.96 191.789 1733.58 193.402 1735.56 193.402ZM1772.55 149.808C1774.21 149.808 1775.57 151.162 1775.57 152.825V167.105C1775.57 168.768 1774.21 170.122 1772.55 170.122H1752.86V189.805C1752.86 191.468 1751.51 192.822 1749.84 192.822H1735.56C1733.89 192.822 1732.54 191.468 1732.54 189.805V170.122H1712.86C1711.19 170.122 1709.84 168.768 1709.84 167.105V152.825C1709.84 151.162 1711.19 149.808 1712.86 149.808H1732.54V130.125C1732.54 128.462 1733.9 127.108 1735.56 127.108H1749.84C1751.51 127.108 1752.86 128.462 1752.86 130.125V149.808H1772.55Z" fill="#85D9EB" fill-opacity="0.4"/>
<path d="M1442.16 36.9181H1456.43C1458.43 36.9181 1460.05 35.3046 1460.05 33.3206V14.2182H1479.14C1481.13 14.2182 1482.75 12.6046 1482.75 10.6207V-3.65895C1482.75 -5.64649 1481.13 -7.26003 1479.14 -7.26003H1460.05V-26.3589C1460.05 -28.3464 1458.43 -29.96 1456.43 -29.96H1442.16C1440.17 -29.96 1438.55 -28.3464 1438.55 -26.3589V-7.26003H1419.46C1417.47 -7.26003 1415.85 -5.64649 1415.85 -3.65895V10.6207C1415.85 12.6046 1417.47 14.2182 1419.46 14.2182H1438.55V33.3206C1438.55 35.3046 1440.17 36.9181 1442.16 36.9181ZM1479.14 -6.67588C1480.8 -6.67588 1482.16 -5.32236 1482.16 -3.65895V10.6207C1482.16 12.2841 1480.8 13.6376 1479.14 13.6376H1459.46V33.3206C1459.46 34.984 1458.11 36.3375 1456.43 36.3375H1442.16C1440.49 36.3375 1439.14 34.984 1439.14 33.3206V13.6376H1419.46C1417.79 13.6376 1416.43 12.2841 1416.43 10.6207V-3.65895C1416.43 -5.32236 1417.79 -6.67588 1419.46 -6.67588H1439.14V-26.3589C1439.14 -28.0223 1440.49 -29.3758 1442.16 -29.3758H1456.43C1458.1 -29.3758 1459.46 -28.0223 1459.46 -26.3589V-6.67588H1479.14Z" fill="#85D9EB" fill-opacity="0.4"/>
<path d="M1609.9 118.713H1624.17C1626.16 118.713 1627.78 117.099 1627.78 115.115V96.0131H1646.88C1648.87 96.0131 1650.48 94.3995 1650.48 92.4156V78.136C1650.48 76.1484 1648.87 74.5349 1646.88 74.5349H1627.78V55.4325C1627.78 53.4485 1626.16 51.835 1624.17 51.835H1609.9C1607.91 51.835 1606.3 53.4485 1606.3 55.4325V74.5349H1587.19C1585.21 74.5349 1583.6 76.1484 1583.6 78.136V92.4156C1583.6 94.3995 1585.21 96.0131 1587.19 96.0131H1606.3V115.115C1606.3 117.099 1607.91 118.713 1609.9 118.713ZM1646.88 75.119C1648.54 75.119 1649.9 76.4726 1649.9 78.136V92.4156C1649.9 94.079 1648.54 95.4325 1646.88 95.4325H1627.2V115.115C1627.2 116.779 1625.84 118.132 1624.17 118.132H1609.9C1608.24 118.132 1606.88 116.779 1606.88 115.115V95.4325H1587.19C1585.53 95.4325 1584.18 94.079 1584.18 92.4156V78.136C1584.18 76.4726 1585.53 75.119 1587.19 75.119H1606.88V55.4325C1606.88 53.7691 1608.24 52.4156 1609.9 52.4156H1624.17C1625.84 52.4156 1627.2 53.7691 1627.2 55.4325V75.119H1646.88Z" fill="#85D9EB" fill-opacity="0.4"/>
<path d="M1180.01 79.1681H1207.92C1211.66 79.1681 1214.7 76.1369 1214.7 72.4147V34.7834H1252.31C1256.05 34.7834 1259.1 31.7522 1259.1 28.0265V0.0976677C1259.1 -3.62807 1256.05 -6.65567 1252.31 -6.65567H1214.7V-44.287C1214.7 -48.0163 1211.66 -51.0439 1207.92 -51.0439H1180.01C1176.27 -51.0439 1173.23 -48.0128 1173.23 -44.287V-6.65567H1135.61C1131.88 -6.65567 1128.84 -3.6245 1128.84 0.0976677V28.0265C1128.84 31.7522 1131.88 34.7834 1135.61 34.7834H1173.23V72.4147C1173.23 76.1405 1176.27 79.1681 1180.01 79.1681ZM1252.31 -6.07865C1255.73 -6.07865 1258.51 -3.3075 1258.51 0.0941048V28.0229C1258.51 31.428 1255.73 34.1956 1252.31 34.1956H1214.11V72.4112C1214.11 75.8163 1211.34 78.5839 1207.92 78.5839H1180.01C1176.59 78.5839 1173.82 75.8163 1173.82 72.4112V34.1956H1135.61C1132.2 34.1956 1129.42 31.428 1129.42 28.0229V0.0941048C1129.42 -3.3075 1132.2 -6.07865 1135.61 -6.07865H1173.82V-44.2906C1173.82 -47.6958 1176.59 -50.4634 1180.01 -50.4634H1207.92C1211.34 -50.4634 1214.11 -47.6958 1214.11 -44.2906V-6.07865H1252.31Z" fill="#85D9EB" fill-opacity="0.4"/>
<path d="M1145.84 280.223H1173.76C1177.5 280.223 1180.54 277.192 1180.54 273.469V235.834H1218.16C1221.89 235.834 1224.93 232.803 1224.93 229.081V201.152C1224.93 197.427 1221.89 194.399 1218.16 194.399H1180.54V156.764C1180.54 153.042 1177.5 150.011 1173.76 150.011H1145.84C1142.11 150.011 1139.07 153.042 1139.07 156.764V194.399H1101.45C1097.71 194.399 1094.67 197.43 1094.67 201.152V229.081C1094.67 232.807 1097.71 235.834 1101.45 235.834H1139.07V273.469C1139.07 277.192 1142.11 280.223 1145.84 280.223ZM1218.16 194.98C1221.57 194.98 1224.34 197.747 1224.34 201.149V229.078C1224.34 232.483 1221.57 235.25 1218.16 235.25H1179.96V273.466C1179.96 276.867 1177.18 279.639 1173.77 279.639H1145.85C1142.43 279.639 1139.66 276.871 1139.66 273.466V235.25H1101.46C1098.04 235.25 1095.26 232.483 1095.26 229.078V201.149C1095.26 197.747 1098.04 194.98 1101.46 194.98H1139.66V156.761C1139.66 153.359 1142.43 150.591 1145.85 150.591H1173.77C1177.18 150.591 1179.96 153.359 1179.96 156.761V194.98H1218.16Z" fill="#85D9EB" fill-opacity="0.4"/>
<path d="M1595.92 297.684H1623.83C1627.57 297.684 1630.61 294.653 1630.61 290.93V253.299H1668.22C1671.96 253.299 1675 250.268 1675 246.542V218.613C1675 214.888 1671.96 211.86 1668.22 211.86H1630.61V174.229C1630.61 170.503 1627.57 167.472 1623.83 167.472H1595.92C1592.18 167.472 1589.14 170.503 1589.14 174.229V211.86H1551.52C1547.79 211.86 1544.75 214.891 1544.75 218.613V246.542C1544.75 250.268 1547.79 253.299 1551.52 253.299H1589.14V290.93C1589.14 294.656 1592.18 297.684 1595.92 297.684ZM1668.23 212.441C1671.64 212.441 1674.42 215.208 1674.42 218.61V246.539C1674.42 249.94 1671.64 252.711 1668.23 252.711H1630.02V290.927C1630.02 294.328 1627.25 297.1 1623.83 297.1H1595.92C1592.51 297.1 1589.73 294.332 1589.73 290.927V252.711H1551.53C1548.11 252.711 1545.34 249.94 1545.34 246.539V218.61C1545.34 215.208 1548.11 212.441 1551.53 212.441H1589.73V174.225C1589.73 170.82 1592.51 168.052 1595.92 168.052H1623.83C1627.25 168.052 1630.02 170.82 1630.02 174.225V212.441H1668.23Z" fill="#85D9EB" fill-opacity="0.4"/>
<path d="M1559.69 3.77353H1587.61C1591.34 3.77353 1594.38 0.742355 1594.38 -2.97982V-40.6112H1632C1635.73 -40.6112 1638.77 -43.6423 1638.77 -47.3645V-75.2969C1638.77 -79.019 1635.73 -82.0502 1632 -82.0502H1594.38V-119.685C1594.38 -123.411 1591.34 -126.438 1587.61 -126.438H1559.69C1555.96 -126.438 1552.92 -123.407 1552.92 -119.685V-82.0538H1515.3C1511.56 -82.0538 1508.52 -79.0226 1508.52 -75.3004V-47.3681C1508.52 -43.6459 1511.56 -40.6147 1515.3 -40.6147H1552.92V-2.98338C1552.92 0.742363 1555.96 3.76997 1559.69 3.76997V3.77353ZM1632 -81.4696C1635.41 -81.4696 1638.19 -78.702 1638.19 -75.3004V-47.3681C1638.19 -43.9665 1635.41 -41.1989 1632 -41.1989H1593.79V-2.98338C1593.79 0.421791 1591.02 3.18938 1587.61 3.18938H1559.69C1556.28 3.18938 1553.5 0.421791 1553.5 -2.98338V-41.1989H1515.3C1511.88 -41.1989 1509.1 -43.9665 1509.1 -47.3681V-75.3004C1509.1 -78.702 1511.88 -81.4696 1515.3 -81.4696H1553.5V-119.685C1553.5 -123.09 1556.28 -125.858 1559.69 -125.858H1587.61C1591.02 -125.858 1593.79 -123.09 1593.79 -119.685V-81.4696H1632Z" fill="#85D9EB" fill-opacity="0.4"/>
<path d="M1430.01 188.828H1457.92C1461.66 188.828 1464.7 185.794 1464.7 182.064V144.44H1502.32C1506.06 144.44 1509.1 141.405 1509.1 137.676V109.754C1509.1 106.025 1506.06 102.99 1502.32 102.99H1464.7V65.3627C1464.7 61.6334 1461.66 58.5986 1457.92 58.5986H1430.01C1426.27 58.5986 1423.23 61.6334 1423.23 65.3627V102.99H1385.62C1381.88 102.99 1378.85 106.022 1378.85 109.754V137.676C1378.85 141.405 1381.88 144.44 1385.62 144.44H1423.23V182.064C1423.23 185.794 1426.27 188.828 1430.01 188.828ZM1502.33 103.575C1505.74 103.575 1508.52 106.349 1508.52 109.754V137.676C1508.52 141.085 1505.74 143.856 1502.33 143.856H1464.12V182.064C1464.12 185.473 1461.34 188.244 1457.93 188.244H1430.01C1426.6 188.244 1423.82 185.473 1423.82 182.064V143.856H1385.62C1382.21 143.856 1379.43 141.085 1379.43 137.676V109.754C1379.43 106.346 1382.21 103.575 1385.62 103.575H1423.82V65.3662C1423.82 61.9575 1426.6 59.1864 1430.01 59.1864H1457.93C1461.34 59.1864 1464.12 61.9575 1464.12 65.3662V103.575H1502.33Z" fill="#85D9EB" fill-opacity="0.4"/>
<path d="M1840.92 173.248H1868.83C1872.57 173.248 1875.61 170.213 1875.61 166.484V128.856H1913.23C1916.96 128.856 1920 125.825 1920 122.092V94.1705C1920 90.4412 1916.96 87.4065 1913.23 87.4065H1875.61V49.7787C1875.61 46.0494 1872.57 43.0146 1868.83 43.0146H1840.92C1837.18 43.0146 1834.14 46.0494 1834.14 49.7787V87.4065H1796.52C1792.78 87.4065 1789.74 90.4412 1789.74 94.1705V122.092C1789.74 125.821 1792.78 128.856 1796.52 128.856H1834.14V166.484C1834.14 170.213 1837.18 173.248 1840.92 173.248ZM1913.23 87.9978C1916.64 87.9978 1919.41 90.7689 1919.41 94.1776V122.099C1919.41 125.508 1916.64 128.279 1913.23 128.279H1875.03V166.488C1875.03 169.896 1872.25 172.667 1868.84 172.667H1840.92C1837.5 172.667 1834.72 169.896 1834.72 166.488V128.279H1796.52C1793.1 128.279 1790.32 125.508 1790.32 122.099V94.1776C1790.32 90.7689 1793.1 87.9978 1796.52 87.9978H1834.72V49.7858C1834.72 46.3771 1837.5 43.6059 1840.92 43.6059H1868.84C1872.25 43.6059 1875.03 46.3771 1875.03 49.7858V87.9978H1913.23Z" fill="#85D9EB" fill-opacity="0.4"/>
<path d="M491.896 12.2755H506.173C508.16 12.2755 509.776 10.6548 509.776 8.66726V-10.4316H528.872C530.863 -10.4316 532.482 -12.0487 532.482 -14.0327V-28.3123C532.482 -30.2963 530.863 -31.9098 528.872 -31.9098H509.776V-51.0122C509.776 -52.9962 508.16 -54.6133 506.173 -54.6133H491.896C489.902 -54.6133 488.282 -52.9962 488.282 -51.0122V-31.9098H469.193C467.203 -31.9098 465.58 -30.2963 465.58 -28.3123V-14.0327C465.58 -12.0487 467.203 -10.4316 469.193 -10.4316H488.282V8.66726C488.282 10.6548 489.902 12.2755 491.896 12.2755ZM528.876 -31.3292C530.545 -31.3292 531.904 -29.9757 531.904 -28.3123V-14.0327C531.904 -12.3693 530.545 -11.0158 528.876 -11.0158H509.194V8.66726C509.194 10.3342 507.842 11.6913 506.177 11.6913H491.9C490.23 11.6913 488.868 10.3342 488.868 8.66726V-11.0158H469.197C467.527 -11.0158 466.168 -12.3693 466.168 -14.0327V-28.3123C466.168 -29.9757 467.527 -31.3292 469.197 -31.3292H488.868V-51.0122C488.868 -52.6756 490.227 -54.0291 491.9 -54.0291H506.177C507.842 -54.0291 509.194 -52.6756 509.194 -51.0122V-31.3292H528.876Z" fill="#85D9EB" fill-opacity="0.4"/>
<path d="M465.887 138.018H480.167C482.157 138.018 483.773 136.397 483.773 134.409V115.307H502.87C504.857 115.307 506.473 113.693 506.473 111.71V97.437C506.473 95.4495 504.857 93.8288 502.87 93.8288H483.773V74.73C483.773 72.7425 482.154 71.1289 480.167 71.1289H465.887C463.896 71.1289 462.276 72.7425 462.276 74.73V93.8288H443.191C441.197 93.8288 439.577 95.4495 439.577 97.437V111.71C439.577 113.693 441.197 115.307 443.191 115.307H462.276V134.409C462.276 136.397 463.896 138.018 465.887 138.018ZM502.87 94.413C504.536 94.413 505.891 95.7701 505.891 97.437V111.71C505.891 113.373 504.536 114.726 502.87 114.726H483.188V134.409C483.188 136.076 481.833 137.433 480.163 137.433H465.883C464.213 137.433 462.854 136.076 462.854 134.409V114.726H443.184C441.514 114.726 440.151 113.373 440.151 111.71V97.437C440.151 95.7701 441.511 94.413 443.184 94.413H462.854V74.73C462.854 73.0666 464.213 71.7131 465.883 71.7131H480.163C481.833 71.7131 483.188 73.0666 483.188 74.73V94.413H502.87Z" fill="#85D9EB" fill-opacity="0.4"/>
<path d="M882.172 30.171H896.452C898.439 30.171 900.055 28.5575 900.055 26.5699V7.47109H919.151C921.142 7.47109 922.758 5.85755 922.758 3.87001V-10.4096C922.758 -12.3936 921.138 -14.0071 919.151 -14.0071H900.055V-33.1095C900.055 -35.0935 898.439 -36.707 896.452 -36.707H882.172C880.181 -36.707 878.561 -35.0935 878.561 -33.1095V-14.0071H859.472C857.482 -14.0071 855.859 -12.3936 855.859 -10.4096V3.87001C855.859 5.85755 857.482 7.47109 859.472 7.47109H878.561V26.5699C878.561 28.5575 880.181 30.171 882.172 30.171ZM919.151 -13.423C920.817 -13.423 922.173 -12.0694 922.173 -10.406V3.87358C922.173 5.53698 920.817 6.8905 919.151 6.8905H899.47V26.5735C899.47 28.2369 898.114 29.5904 896.452 29.5904H882.172C880.502 29.5904 879.146 28.2369 879.146 26.5735V6.8905H859.472C857.803 6.8905 856.444 5.53698 856.444 3.87358V-10.406C856.444 -12.0694 857.803 -13.423 859.472 -13.423H879.146V-33.106C879.146 -34.7694 880.506 -36.1229 882.172 -36.1229H896.452C898.118 -36.1229 899.47 -34.7694 899.47 -33.106V-13.423H919.151Z" fill="#85D9EB" fill-opacity="0.4"/>
<path d="M542.146 239.881H556.423C558.417 239.881 560.036 238.264 560.036 236.28V217.181H579.126C581.116 217.181 582.739 215.564 582.739 213.58V199.3C582.739 197.312 581.116 195.699 579.126 195.699H560.036V176.6C560.036 174.613 558.417 172.999 556.423 172.999H542.146C540.155 172.999 538.539 174.613 538.539 176.6V195.699H519.443C517.456 195.699 515.84 197.312 515.84 199.3V213.58C515.84 215.564 517.456 217.181 519.443 217.181H538.539V236.28C538.539 238.264 540.155 239.881 542.146 239.881ZM579.126 196.287C580.795 196.287 582.154 197.64 582.154 199.304V213.583C582.154 215.247 580.795 216.6 579.126 216.6H559.451V236.283C559.451 237.947 558.092 239.3 556.423 239.3H542.146C540.48 239.3 539.124 237.947 539.124 236.283V216.6H519.443C517.777 216.6 516.422 215.247 516.422 213.583V199.304C516.422 197.64 517.777 196.287 519.443 196.287H539.124V176.604C539.124 174.94 540.48 173.587 542.146 173.587H556.423C558.092 173.587 559.451 174.94 559.451 176.604V196.287H579.126Z" fill="#85D9EB" fill-opacity="0.4"/>
<path d="M925.729 189.84H940.01C942 189.84 943.623 188.226 943.623 186.239V167.14H962.72C964.71 167.14 966.326 165.523 966.326 163.539V149.259C966.326 147.275 964.707 145.658 962.72 145.658H943.623V126.559C943.623 124.575 942 122.958 940.01 122.958H925.729C923.746 122.958 922.133 124.575 922.133 126.559V145.658H903.03C901.047 145.658 899.434 147.275 899.434 149.259V163.539C899.434 165.523 901.047 167.14 903.03 167.14H922.133V186.239C922.133 188.226 923.749 189.84 925.729 189.84ZM962.716 146.246C964.382 146.246 965.738 147.599 965.738 149.263V163.542C965.738 165.206 964.382 166.559 962.716 166.559H943.035V186.242C943.035 187.906 941.676 189.259 940.006 189.259H925.726C924.063 189.259 922.715 187.906 922.715 186.242V166.559H903.026C901.364 166.559 900.012 165.206 900.012 163.542V149.263C900.012 147.599 901.364 146.246 903.026 146.246H922.715V126.563C922.715 124.899 924.067 123.546 925.726 123.546H940.006C941.676 123.546 943.035 124.899 943.035 126.563V146.246H962.716Z" fill="#85D9EB" fill-opacity="0.4"/>
<path d="M959.178 299.454H973.458C975.448 299.454 977.072 297.84 977.072 295.853V276.754H996.168C998.158 276.754 999.774 275.137 999.774 273.153V258.873C999.774 256.889 998.155 255.272 996.168 255.272H977.072V236.173C977.072 234.189 975.448 232.572 973.458 232.572H959.178C957.194 232.572 955.582 234.189 955.582 236.173V255.272H936.478C934.495 255.272 932.882 256.889 932.882 258.873V273.153C932.882 275.137 934.495 276.754 936.478 276.754H955.582V295.853C955.582 297.84 957.198 299.454 959.178 299.454ZM996.164 255.86C997.83 255.86 999.186 257.213 999.186 258.877V273.156C999.186 274.82 997.83 276.173 996.164 276.173H976.483V295.856C976.483 297.52 975.124 298.873 973.454 298.873H959.174C957.512 298.873 956.163 297.52 956.163 295.856V276.173H936.475C934.812 276.173 933.46 274.82 933.46 273.156V258.877C933.46 257.213 934.812 255.86 936.475 255.86H956.163V236.177C956.163 234.514 957.515 233.16 959.174 233.16H973.454C975.124 233.16 976.483 234.514 976.483 236.177V255.86H996.164Z" fill="#85D9EB" fill-opacity="0.4"/>
<path d="M632.323 33.3556H646.599C648.594 33.3556 650.213 31.7421 650.213 29.7581V10.6557H669.302C671.293 10.6557 672.916 9.04213 672.916 7.05816V-7.22145C672.916 -9.20899 671.293 -10.8225 669.302 -10.8225H650.213V-29.9214C650.213 -31.9089 648.594 -33.5225 646.599 -33.5225H632.323C630.336 -33.5225 628.72 -31.9089 628.72 -29.9214V-10.8225H609.623C607.636 -10.8225 606.02 -9.20899 606.02 -7.22145V7.05816C606.02 9.04213 607.64 10.6557 609.623 10.6557H628.72V29.7581C628.72 31.7421 630.336 33.3556 632.323 33.3556ZM669.302 -10.2384C670.972 -10.2384 672.331 -8.88486 672.331 -7.22145V7.05816C672.331 8.72157 670.972 10.0751 669.302 10.0751H649.632V29.7581C649.632 31.4215 648.272 32.775 646.599 32.775H632.323C630.657 32.775 629.305 31.4215 629.305 29.7581V10.0751H609.623C607.957 10.0751 606.602 8.72157 606.602 7.05816V-7.22145C606.602 -8.88486 607.957 -10.2384 609.623 -10.2384H629.305V-29.9214C629.305 -31.5848 630.66 -32.9383 632.323 -32.9383H646.599C648.269 -32.9383 649.632 -31.5848 649.632 -29.9214V-10.2384H669.302Z" fill="#85D9EB" fill-opacity="0.4"/>
<path d="M800.069 115.151H814.339C816.333 115.151 817.952 113.538 817.952 111.554V92.4516H837.049C839.039 92.4516 840.655 90.838 840.655 88.854V74.5744C840.655 72.5869 839.039 70.9734 837.049 70.9734H817.952V51.8709C817.952 49.887 816.333 48.2734 814.339 48.2734H800.069C798.082 48.2734 796.466 49.887 796.466 51.8709V70.9734H777.363C775.379 70.9734 773.767 72.5869 773.767 74.5744V88.854C773.767 90.838 775.379 92.4516 777.363 92.4516H796.466V111.554C796.466 113.538 798.086 115.151 800.069 115.151ZM837.049 71.5575C838.715 71.5575 840.07 72.911 840.07 74.5744V88.854C840.07 90.5175 838.715 91.871 837.049 91.871H817.371V111.554C817.371 113.217 816.012 114.571 814.342 114.571H800.073C798.407 114.571 797.051 113.217 797.051 111.554V91.871H777.363C775.7 91.871 774.348 90.5175 774.348 88.854V74.5744C774.348 72.911 775.7 71.5575 777.363 71.5575H797.051V51.8709C797.051 50.2075 798.407 48.854 800.073 48.854H814.342C816.012 48.854 817.371 50.2075 817.371 51.8709V71.5575H837.049Z" fill="#85D9EB" fill-opacity="0.4"/>
<path d="M370.173 75.6065H398.087C401.823 75.6065 404.862 72.5754 404.862 68.8532V31.2218H442.48C446.219 31.2218 449.262 28.1907 449.262 24.4649V-3.46386C449.262 -7.18959 446.219 -10.2172 442.48 -10.2172H404.862V-47.8486C404.862 -51.5779 401.823 -54.6055 398.087 -54.6055H370.173C366.438 -54.6055 363.398 -51.5743 363.398 -47.8486V-10.2172H325.78C322.045 -10.2172 319.006 -7.18603 319.006 -3.46386V24.4649C319.006 28.1907 322.045 31.2218 325.78 31.2218H363.398V68.8532C363.398 72.5789 366.438 75.6065 370.173 75.6065ZM442.48 -9.64017C445.898 -9.64017 448.677 -6.86902 448.677 -3.46742V24.4614C448.677 27.8665 445.898 30.6341 442.48 30.6341H404.277V68.8496C404.277 72.2548 401.501 75.0224 398.087 75.0224H370.173C366.759 75.0224 363.983 72.2548 363.983 68.8496V30.6341H325.78C322.366 30.6341 319.591 27.8665 319.591 24.4614V-3.46742C319.591 -6.86902 322.366 -9.64017 325.78 -9.64017H363.983V-47.8521C363.983 -51.2573 366.759 -54.0249 370.173 -54.0249H398.087C401.501 -54.0249 404.277 -51.2573 404.277 -47.8521V-9.64017H442.48Z" fill="#85D9EB" fill-opacity="0.4"/>
<path d="M336.015 276.661H363.934C367.669 276.661 370.708 273.63 370.708 269.908V232.273H408.326C412.061 232.273 415.101 229.242 415.101 225.52V197.591C415.101 193.865 412.061 190.837 408.326 190.837H370.708V153.203C370.708 149.48 367.672 146.449 363.934 146.449H336.015C332.28 146.449 329.241 149.48 329.241 153.203V190.837H291.623C287.884 190.837 284.841 193.869 284.841 197.591V225.52C284.841 229.245 287.884 232.273 291.623 232.273H329.241V269.908C329.241 273.63 332.28 276.661 336.015 276.661ZM408.326 191.418C411.74 191.418 414.516 194.186 414.516 197.587V225.516C414.516 228.921 411.74 231.689 408.326 231.689H370.127V269.904C370.127 273.306 367.348 276.077 363.937 276.077H336.019C332.605 276.077 329.829 273.309 329.829 269.904V231.689H291.626C288.209 231.689 285.43 228.921 285.43 225.516V197.587C285.43 194.186 288.209 191.418 291.626 191.418H329.829V153.199C329.829 149.797 332.605 147.03 336.019 147.03H363.937C367.351 147.03 370.127 149.797 370.127 153.199V191.418H408.326Z" fill="#85D9EB" fill-opacity="0.4"/>
<path d="M786.084 294.121H813.999C817.734 294.121 820.773 291.09 820.773 287.368V249.736H858.391C862.127 249.736 865.166 246.705 865.166 242.98V215.051C865.166 211.325 862.127 208.297 858.391 208.297H820.773V170.666C820.773 166.94 817.734 163.909 813.999 163.909H786.084C782.349 163.909 779.31 166.94 779.31 170.666V208.297H741.692C737.956 208.297 734.917 211.329 734.917 215.051V242.98C734.917 246.705 737.956 249.736 741.692 249.736H779.31V287.368C779.31 291.094 782.349 294.121 786.084 294.121ZM858.395 208.878C861.809 208.878 864.584 211.646 864.584 215.047V242.976C864.584 246.378 861.809 249.149 858.395 249.149H820.192V287.364C820.192 290.766 817.416 293.537 814.002 293.537H786.088C782.674 293.537 779.898 290.769 779.898 287.364V249.149H741.695C738.281 249.149 735.506 246.378 735.506 242.976V215.047C735.506 211.646 738.281 208.878 741.695 208.878H779.898V170.663C779.898 167.257 782.674 164.49 786.088 164.49H814.002C817.416 164.49 820.192 167.257 820.192 170.663V208.878H858.395Z" fill="#85D9EB" fill-opacity="0.4"/>
<path d="M749.86 0.212006H777.775C781.51 0.212006 784.55 -2.81917 784.55 -6.54134V-44.1727H822.168C825.903 -44.1727 828.942 -47.2039 828.942 -50.926V-78.8584C828.942 -82.5806 825.903 -85.6117 822.168 -85.6117H784.55V-123.247C784.55 -126.972 781.514 -130 777.775 -130H749.86C746.125 -130 743.086 -126.969 743.086 -123.247V-85.6153H705.468C701.729 -85.6153 698.686 -82.5841 698.686 -78.8619V-50.9296C698.686 -47.2074 701.729 -44.1763 705.468 -44.1763H743.086V-6.5449C743.086 -2.81916 746.125 0.20845 749.86 0.20845V0.212006ZM822.168 -85.0311C825.582 -85.0311 828.357 -82.2635 828.357 -78.8619V-50.9296C828.357 -47.528 825.582 -44.7604 822.168 -44.7604H783.965V-6.5449C783.965 -3.13973 781.189 -0.372147 777.775 -0.372147H749.86C746.446 -0.372147 743.671 -3.13973 743.671 -6.5449V-44.7604H705.468C702.05 -44.7604 699.271 -47.528 699.271 -50.9296V-78.8619C699.271 -82.2635 702.05 -85.0311 705.468 -85.0311H743.671V-123.247C743.671 -126.652 746.45 -129.419 749.86 -129.419H777.775C781.189 -129.419 783.965 -126.652 783.965 -123.247V-85.0311H822.168Z" fill="#85D9EB" fill-opacity="0.4"/>
<path d="M620.179 185.267H648.093C651.828 185.267 654.868 182.232 654.868 178.503V140.879H692.493C696.228 140.879 699.268 137.844 699.268 134.115V106.193C699.268 102.464 696.228 99.4289 692.493 99.4289H654.868V61.8011C654.868 58.0718 651.828 55.0371 648.093 55.0371H620.179C616.443 55.0371 613.404 58.0718 613.404 61.8011V99.4289H575.786C572.051 99.4289 569.015 102.46 569.015 106.193V134.115C569.015 137.844 572.051 140.879 575.786 140.879H613.404V178.503C613.404 182.232 616.443 185.267 620.179 185.267ZM692.497 100.013C695.911 100.013 698.686 102.788 698.686 106.193V134.115C698.686 137.523 695.907 140.295 692.497 140.295H654.286V178.503C654.286 181.912 651.507 184.683 648.097 184.683H620.182C616.768 184.683 613.993 181.912 613.993 178.503V140.295H575.79C572.376 140.295 569.6 137.523 569.6 134.115V106.193C569.6 102.784 572.376 100.013 575.79 100.013H613.993V61.8047C613.993 58.396 616.768 55.6248 620.182 55.6248H648.097C651.511 55.6248 654.286 58.396 654.286 61.8047V100.013H692.497Z" fill="#85D9EB" fill-opacity="0.4"/>
<path d="M1031.09 169.687H1059C1062.74 169.687 1065.78 166.652 1065.78 162.922V125.295H1103.4C1107.13 125.295 1110.17 122.264 1110.17 118.531V90.609C1110.17 86.8797 1107.13 83.845 1103.4 83.845H1065.78V46.2172C1065.78 42.4879 1062.74 39.4531 1059 39.4531H1031.09C1027.35 39.4531 1024.31 42.4879 1024.31 46.2172V83.845H986.693C982.951 83.845 979.911 86.8797 979.911 90.609V118.531C979.911 122.26 982.954 125.295 986.693 125.295H1024.31V162.922C1024.31 166.652 1027.35 169.687 1031.09 169.687ZM1103.4 84.4362C1106.81 84.4362 1109.59 87.2074 1109.59 90.6161V118.538C1109.59 121.947 1106.81 124.718 1103.4 124.718H1065.19V162.926C1065.19 166.335 1062.42 169.106 1059 169.106H1031.09C1027.67 169.106 1024.89 166.335 1024.89 162.926V124.718H986.689C983.272 124.718 980.489 121.947 980.489 118.538V90.6161C980.489 87.2074 983.272 84.4362 986.689 84.4362H1024.89V46.2243C1024.89 42.8156 1027.67 40.0444 1031.09 40.0444H1059C1062.42 40.0444 1065.19 42.8156 1065.19 46.2243V84.4362H1103.4Z" fill="#85D9EB" fill-opacity="0.4"/>
</g>
</svg>
