<?xml version="1.0" encoding="UTF-8" standalone="no"?> <svg id="Layer_1" data-name="Layer 1" xmlns="http://www.w3.org/2000/svg" viewBox="0 0 64 64"><circle cx="26" cy="53" r="3"/><path d="M19,59v4H33V59a2,2,0,0,0-2-2H21A2,2,0,0,0,19,59Z"/><circle cx="44" cy="53" r="3"/><path d="M37,59v4H51V59a2,2,0,0,0-2-2H39A2,2,0,0,0,37,59Z"/><circle cx="8" cy="53" r="3"/><path d="M15,59a2,2,0,0,0-2-2H3a2,2,0,0,0-2,2v4H15Z"/><path d="M62,1H2A1,1,0,0,0,1,2V38a1,1,0,0,0,1,1H39v3a1,1,0,0,0,1,1H56a1,1,0,0,0,1-1V39h5a1,1,0,0,0,1-1V24H61V37H57V30a5,5,0,0,0-3-4.58v-.09l3.94-2.62A9.11,9.11,0,0,0,62,15.12h0A9.12,9.12,0,0,0,52.88,6H41a3,3,0,0,0-.2,6,3,3,0,0,0-.8,2v8a4.92,4.92,0,0,0,1,3h-.8l-6.16-3-.13-.05a2.94,2.94,0,0,0-2.62.37L28,19.49a3,3,0,0,0-5.89-.06l-4.51,3A3,3,0,0,0,15,21a3,3,0,0,0-1.79.61L9.31,10.69a3,3,0,1,0-2.05.21L12,24.24a3,3,0,0,0,5.92.33l4.51-3a3,3,0,0,0,5,.12l2.67,2.22a3.09,3.09,0,0,0-.14.86,3,3,0,0,0,1.59,2.64L39,32.52V37H3V3H61V6h2V2A1,1,0,0,0,62,1ZM42,14a1,1,0,0,1,1-1h8a1,1,0,0,1,1,1v2a1,1,0,0,0,1,1,1,1,0,0,1,0,2,1,1,0,0,0-1,1v5H45a3,3,0,0,1-2.48-1.31A4,4,0,0,0,45,20H43a2,2,0,0,1-1,1.72ZM8,9A1,1,0,1,1,9,8,1,1,0,0,1,8,9Zm7,16a1,1,0,1,1,1-1A1,1,0,0,1,15,25Zm10-4a1,1,0,1,1,1-1A1,1,0,0,1,25,21Z"/><path d="M47,17a1,1,0,0,1,1,1h2a3,3,0,0,0-6,0h2A1,1,0,0,1,47,17Z"/></svg>