<svg width="26" height="26" viewBox="0 0 26 26" fill="none" xmlns="http://www.w3.org/2000/svg">
<g clip-path="url(#clip0_1241_612)">
<path d="M4.89873 12.1029C4.41123 12.1029 3.9933 11.7332 3.94405 11.2376C3.74498 9.24798 4.42952 7.30864 5.82143 5.91622C6.1962 5.54095 6.80455 5.54095 7.17983 5.91622C7.5551 6.29099 7.5551 6.89935 7.17983 7.27462C6.1967 8.25774 5.71377 9.63239 5.85545 11.0466C5.90827 11.5743 5.52284 12.0455 4.99522 12.0983C4.96323 12.1014 4.93073 12.1029 4.89873 12.1029Z" fill="white"/>
<path d="M10.983 21.9654C4.9268 21.9654 0 17.0386 0 10.983C0 4.9273 4.9268 0 10.983 0C17.0391 0 21.9659 4.9268 21.9659 10.983C21.9659 17.0391 17.0391 21.9659 10.983 21.9659V21.9654ZM10.983 1.92105C5.98609 1.92105 1.92156 5.98609 1.92156 10.9825C1.92156 15.9788 5.9866 20.0439 10.983 20.0439C15.9793 20.0439 20.0444 15.9788 20.0444 10.9825C20.0444 5.98609 15.9793 1.92105 10.983 1.92105Z" fill="white"/>
<path d="M25.0384 26.0002C24.7927 26.0002 24.5469 25.9063 24.3595 25.7189L17.3791 18.7385C17.0038 18.3637 17.0038 17.7554 17.3791 17.3801C17.7544 17.0048 18.3622 17.0048 18.7375 17.3801L25.7179 24.3605C26.0932 24.7352 26.0932 25.3436 25.7179 25.7189C25.5305 25.9068 25.2847 26.0002 25.039 26.0002H25.0384Z" fill="white"/>
</g>
<defs>
<clipPath id="clip0_1241_612">
<rect width="26" height="26" fill="white"/>
</clipPath>
</defs>
</svg>
