<?xml version="1.0" encoding="iso-8859-1"?>
<!-- Generator: Adobe Illustrator 23.0.4, SVG Export Plug-In . SVG Version: 6.00 Build 0)  -->
<svg version="1.1" id="Layer_1_1_" xmlns="http://www.w3.org/2000/svg" xmlns:xlink="http://www.w3.org/1999/xlink" x="0px" y="0px"
	 viewBox="0 0 64 64" style="enable-background:new 0 0 64 64;" xml:space="preserve">
<path d="M61,6H43c-0.552,0-1,0.447-1,1v17H25c-0.552,0-1,0.447-1,1v17H7c-0.552,0-1,0.447-1,1v18c0,0.553,0.448,1,1,1h54
	c0.552,0,1-0.447,1-1V7C62,6.447,61.552,6,61,6z M20,60h-8v-3c0-1.654,1.346-3,3-3h2c1.654,0,3,1.346,3,3V60z M14,50
	c0-1.103,0.897-2,2-2s2,0.897,2,2s-0.897,2-2,2S14,51.103,14,50z M24,60h-2v-3c0-2-1.188-3.717-2.889-4.516
	C19.658,51.799,20,50.943,20,50c0-2.206-1.794-4-4-4s-4,1.794-4,4c0,0.943,0.342,1.799,0.889,2.484C11.188,53.283,10,55,10,57v3H8
	V44h16V60z M42,60H26V44h16V60z M42,42H26V26h16V42z M60,60H44V44h16V60z M60,42H44V26h16V42z M60,24H44V8h16V24z"/>
<path d="M57.151,13.831l-2.927-0.447l-1.318-2.809C52.741,10.225,52.388,10,52,10s-0.741,0.225-0.905,0.575l-1.318,2.809
	l-2.927,0.447c-0.371,0.057-0.678,0.315-0.797,0.671s-0.029,0.747,0.232,1.016l2.147,2.201l-0.509,3.12
	c-0.062,0.378,0.098,0.758,0.411,0.979c0.313,0.221,0.724,0.244,1.06,0.058L52,20.435l2.606,1.44C54.758,21.959,54.924,22,55.09,22
	c0.202,0,0.404-0.062,0.576-0.183c0.313-0.221,0.473-0.601,0.411-0.979l-0.509-3.12l2.147-2.201c0.262-0.269,0.352-0.66,0.232-1.016
	S57.521,13.888,57.151,13.831z M53.784,16.684c-0.222,0.228-0.322,0.546-0.271,0.859l0.259,1.586l-1.288-0.712
	c-0.151-0.083-0.317-0.125-0.484-0.125s-0.333,0.042-0.484,0.125l-1.288,0.712l0.259-1.586c0.051-0.313-0.049-0.632-0.271-0.859
	l-1.141-1.169l1.531-0.234c0.33-0.05,0.613-0.262,0.754-0.563L52,13.354l0.64,1.363c0.142,0.302,0.425,0.514,0.754,0.563
	l1.531,0.234L53.784,16.684z"/>
<path d="M34,28c-3.309,0-6,2.691-6,6s2.691,6,6,6s6-2.691,6-6S37.309,28,34,28z M37.858,33H35v-2.858
	C36.399,30.506,37.494,31.601,37.858,33z M34,38c-2.206,0-4-1.794-4-4c0-1.859,1.28-3.411,3-3.858V34c0,0.553,0.448,1,1,1h3.858
	C37.411,36.721,35.858,38,34,38z"/>
<path d="M34,49c0.551,0,1,0.448,1,1h2c0-1.302-0.839-2.402-2-2.816V46h-2v1.184c-1.161,0.414-2,1.514-2,2.816c0,1.654,1.346,3,3,3
	c0.551,0,1,0.448,1,1s-0.449,1-1,1s-1-0.448-1-1h-2c0,1.302,0.839,2.402,2,2.816V58h2v-1.184c1.161-0.414,2-1.514,2-2.816
	c0-1.654-1.346-3-3-3c-0.551,0-1-0.448-1-1S33.449,49,34,49z"/>
<path d="M55.248,29.121l-4.95,0.707c-0.375,0.054-0.688,0.314-0.807,0.674s-0.026,0.756,0.242,1.023l1.414,1.414l-4.243,4.242
	l1.414,1.414l4.243-4.242l1.414,1.414c0.19,0.19,0.446,0.293,0.707,0.293c0.106,0,0.212-0.017,0.316-0.052
	c0.359-0.119,0.62-0.432,0.673-0.807l0.707-4.949c0.045-0.312-0.06-0.626-0.283-0.849C55.874,29.183,55.561,29.077,55.248,29.121z
	 M53.975,32.939l-1.414-1.414l1.649-0.235L53.975,32.939z"/>
<rect x="47" y="53" width="2" height="5"/>
<rect x="51" y="50" width="2" height="8"/>
<rect x="55" y="47" width="2" height="11"/>
<path d="M13,18c2.757,0,5-2.243,5-5s-2.243-5-5-5s-5,2.243-5,5S10.243,18,13,18z M13,10c1.654,0,3,1.346,3,3s-1.346,3-3,3
	s-3-1.346-3-3S11.346,10,13,10z"/>
<path d="M3,16l1.538,0.043c0.096,0.27,0.205,0.531,0.347,0.83L3.808,17.95c-0.188,0.188-0.293,0.441-0.293,0.707
	s0.105,0.52,0.293,0.707l2.829,2.828c0.391,0.391,1.023,0.391,1.414,0l1.118-1.057c0.257,0.121,0.521,0.23,0.832,0.34V23
	c0,0.553,0.448,1,1,1h4c0.552,0,1-0.447,1-1l0.041-1.537c0.27-0.097,0.533-0.206,0.832-0.348l1.077,1.077
	c0.391,0.391,1.023,0.391,1.414,0l2.829-2.828c0.188-0.188,0.293-0.441,0.293-0.707s-0.105-0.52-0.293-0.707l-1.056-1.119
	c0.12-0.257,0.229-0.519,0.339-0.831H23c0.552,0,1-0.447,1-1v-4c0-0.553-0.448-1-1-1l-1.538-0.043
	c-0.096-0.27-0.205-0.531-0.347-0.83l1.077-1.077c0.188-0.188,0.293-0.441,0.293-0.707s-0.105-0.52-0.293-0.707l-2.829-2.828
	c-0.391-0.391-1.023-0.391-1.414,0l-1.118,1.057c-0.257-0.121-0.521-0.23-0.832-0.34V3c0-0.553-0.448-1-1-1h-4c-0.552,0-1,0.447-1,1
	L9.959,4.537c-0.27,0.097-0.533,0.206-0.832,0.348L8.05,3.808c-0.391-0.391-1.023-0.391-1.414,0L3.808,6.636
	C3.62,6.823,3.515,7.077,3.515,7.343S3.62,7.862,3.808,8.05l1.056,1.119C4.743,9.426,4.634,9.688,4.524,10H3c-0.552,0-1,0.447-1,1v4
	C2,15.553,2.448,16,3,16z M4,12h0.524c0.841,0,1.603-0.55,1.896-1.367c0.075-0.209,0.16-0.414,0.253-0.611
	c0.371-0.786,0.221-1.714-0.374-2.309l-0.37-0.37l1.415-1.414l0.37,0.37c0.602,0.603,1.508,0.751,2.309,0.374
	c0.198-0.094,0.4-0.178,0.611-0.252C11.463,6.122,12,5.378,12,4.524V4h2v0.524c0,0.854,0.537,1.598,1.37,1.897
	c0.208,0.073,0.41,0.157,0.61,0.252c0.799,0.375,1.705,0.227,2.307-0.375l0.37-0.37l1.415,1.414l-0.37,0.37
	c-0.595,0.595-0.745,1.522-0.375,2.308c0.094,0.198,0.179,0.403,0.253,0.612C19.874,11.45,20.635,12,21.476,12H22v2h-0.524
	c-0.841,0-1.603,0.55-1.896,1.367c-0.075,0.209-0.16,0.414-0.253,0.611c-0.371,0.786-0.221,1.714,0.374,2.309l0.37,0.37
	l-1.415,1.414l-0.37-0.37c-0.602-0.603-1.508-0.751-2.309-0.374c-0.198,0.094-0.4,0.178-0.611,0.252
	C14.537,19.878,14,20.622,14,21.476V22h-2v-0.524c0-0.854-0.537-1.598-1.37-1.897c-0.208-0.073-0.41-0.157-0.61-0.252
	c-0.799-0.374-1.706-0.228-2.307,0.375l-0.37,0.37l-1.415-1.414l0.37-0.37c0.595-0.595,0.745-1.522,0.375-2.308
	c-0.094-0.198-0.179-0.403-0.253-0.612C6.126,14.55,5.365,14,4.524,14H4V12z"/>
</svg>
