<svg xmlns="http://www.w3.org/2000/svg" xml:space="preserve" width="530px" height="530px" version="1.1" style="shape-rendering:geometricPrecision; text-rendering:geometricPrecision; image-rendering:optimizeQuality; fill-rule:evenodd; clip-rule:evenodd" viewBox="0 0 530 530" xmlns:xlink="http://www.w3.org/1999/xlink">
 <defs>
  <style type="text/css">
   
    .fil0 {fill:black}
   
  </style>
 </defs>
 <g id="Layer_x0020_1">
  <metadata id="CorelCorpID_0Corel-Layer"></metadata>
  <path class="fil0" d="M350 335c-10,0 -10,-19 0,-19 11,0 11,19 0,19zm112 111l-158 0c-4,16 -5,37 7,59l52 0c11,0 11,16 0,16l-196 0c-11,0 -11,-16 0,-16l52 0c12,-22 11,-43 7,-59l-158 0c-13,0 -24,-11 -24,-24l0 -252c0,-13 11,-24 24,-24l43 0 0 -129c0,-4 4,-8 8,-8l156 0c2,0 4,1 5,2l98 98c2,2 3,4 3,6l0 31 81 0c13,0 24,11 24,24l0 252c0,13 -11,24 -24,24zm-174 0l-46 0c4,16 5,37 -5,59l56 0c-10,-22 -9,-43 -5,-59zm-177 -284l-43 0c-5,0 -8,4 -8,8l0 252c0,4 3,8 8,8l394 0c5,0 8,-4 8,-8l0 -252c0,-4 -3,-8 -8,-8l-81 0 0 16 65 0c4,0 8,4 8,8l0 220c0,4 -4,8 -8,8l-362 0c-4,0 -8,-4 -8,-8l0 -220c0,-4 4,-8 8,-8l27 0 0 -16zm0 32l-19 0 0 204 346 0 0 -204 -57 0 0 71 35 60c9,17 -2,36 -23,36l-84 0c-8,0 -16,-2 -21,-9l-169 0c-4,0 -8,-3 -8,-8l0 -150zm254 47l0 -118 -90 0c-5,0 -8,-4 -8,-8l0 -90 -140 0 0 311 156 0c0,-4 1,-8 4,-12l43 -76c7,-12 24,-15 35,-7zm-82 -134l70 0 -70 -71 0 71zm62 60l-194 0c-10,0 -10,-16 0,-16l194 0c10,0 10,16 0,16zm0 38l-194 0c-10,0 -10,-16 0,-16l194 0c10,0 10,16 0,16zm6 47c-2,0 -5,1 -7,4l-44 76c-4,6 0,14 7,13l87 0c7,0 11,-6 8,-12l-45 -77c-2,-3 -5,-4 -6,-4zm-200 -136c-14,-5 -19,-28 -6,-28 12,0 5,14 14,14 7,0 7,-11 0,-11 -24,0 -29,-33 -8,-42 0,-6 -1,-15 8,-15 9,0 8,9 8,15 14,6 19,28 5,28 -11,0 -4,-13 -13,-13 -7,0 -7,11 0,11 24,0 29,33 8,41 0,7 1,16 -8,16 -9,0 -8,-9 -8,-16zm97 -59l-49 0c-10,0 -10,-16 0,-16l49 0c11,0 11,16 0,16zm0 22l-49 0c-10,0 -10,-16 0,-16l49 0c11,0 11,16 0,16zm0 23l-49 0c-10,0 -10,-16 0,-16l49 0c11,0 11,16 0,16zm0 23l-49 0c-10,0 -10,-16 0,-16l49 0c11,0 11,16 0,16zm22 179l-129 0c-10,0 -10,-16 0,-16 0,-33 -4,-30 28,-30 5,0 8,4 8,8l0 22 10 0 0 -56c0,-4 4,-8 8,-8l20 0c5,0 8,4 8,8l0 56 11 0 0 -37c0,-5 3,-8 8,-8l20 0c4,0 8,3 8,8l0 37c10,0 10,16 0,16zm-113 -16l4 0 0 -14 -4 0 0 14zm46 0l4 0 0 -48 -4 0 0 48zm47 0l4 0 0 -29 -4 0 0 29zm101 23c-4,0 -8,-3 -8,-8l0 -33c0,-11 16,-11 16,0l0 33c0,5 -3,8 -8,8z" id="id_101"></path>
 </g>
</svg>