<?xml version="1.0" encoding="UTF-8"?>
<!DOCTYPE svg PUBLIC "-//W3C//DTD SVG 1.1//EN" "http://www.w3.org/Graphics/SVG/1.1/DTD/svg11.dtd">
<!-- Creator: CorelDRAW -->
<svg xmlns="http://www.w3.org/2000/svg" xml:space="preserve" width="1.99999in" height="1.99999in" version="1.1" style="shape-rendering:geometricPrecision; text-rendering:geometricPrecision; image-rendering:optimizeQuality; fill-rule:evenodd; clip-rule:evenodd"
viewBox="0 0 2000 2000"
 xmlns:xlink="http://www.w3.org/1999/xlink">
 <defs>
  <style type="text/css">
   <![CDATA[
    .fil0 {fill:#000002}
   ]]>
  </style>
 </defs>
 <g id="Layer_x0020_1">
  <metadata id="CorelCorpID_0Corel-Layer"/>
  <path class="fil0" d="M372 1505l0 -107c0,-34 52,-34 52,0l0 107 69 0 0 -107c0,-34 52,-34 52,0l0 107 30 0 0 -104c0,-35 -18,-68 -47,-87 -40,33 -99,33 -139,0 -29,19 -47,52 -47,87l0 104 30 0zm1144 -528l-1032 0 0 39c49,12 85,56 85,108 0,61 -50,111 -111,111 -61,0 -110,-50 -110,-111 0,-52 36,-96 85,-108l0 -65c0,-14 11,-26 25,-26l516 0 0 -107 -156 0c-21,0 -38,-18 -38,-39l0 -165c0,-80 47,-153 120,-186 34,-15 34,40 100,40 66,0 66,-55 100,-40 73,33 120,106 120,186l0 165c0,21 -17,39 -38,39l-156 0 0 107 516 0c14,0 25,12 25,26l0 64c49,11 85,55 85,107 0,61 -49,111 -110,111 -61,0 -111,-50 -111,-111 0,-52 36,-96 85,-107l0 -38zm-924 580l-267 0c-19,0 -35,-16 -35,-35l0 -121c0,-61 36,-117 92,-143 31,-14 31,29 76,29 46,0 46,-43 77,-29 55,26 92,82 92,143l0 121c0,19 -16,35 -35,35zm-134 -492c-77,0 -77,118 0,118 78,0 78,-118 0,-118zm1217 490l-267 0c-19,0 -35,-15 -35,-35l0 -121c0,-61 37,-117 92,-142 31,-14 31,28 77,28 45,0 45,-42 76,-28 56,25 92,81 92,142l0 121c0,20 -16,35 -35,35zm-250 -51l30 0 0 -108c0,-34 52,-34 52,0l0 108 69 0 0 -108c0,-34 52,-34 52,0l0 108 30 0 0 -105c0,-35 -18,-68 -47,-87 -40,33 -99,33 -139,0 -29,19 -47,52 -47,87l0 105 0 0zm117 -441c-78,0 -78,118 0,118 77,0 77,-118 0,-118zm-710 -297l42 0 0 -156c0,-34 52,-34 52,0l0 156 148 0 0 -156c0,-34 52,-34 52,0l0 156 42 0 0 -152c0,-54 -28,-103 -74,-130 -53,48 -135,48 -188,0 -46,27 -74,76 -74,130l0 152 0 0zm168 -336c-78,0 -141,-64 -141,-142 0,-78 63,-141 141,-141 78,0 141,63 141,141 0,78 -63,142 -141,142zm0 -232c-49,0 -90,41 -90,90 0,50 41,90 90,90 49,0 90,-40 90,-90 0,-49 -41,-90 -90,-90zm0 1655c-165,0 -298,-134 -298,-298l0 -342c0,-15 11,-26 25,-26l158 0c14,0 26,11 26,26l0 348c0,50 40,90 89,90 49,0 89,-40 89,-90l0 -348c0,-15 12,-26 26,-26l158 0c14,0 25,11 25,26l0 342c0,164 -133,298 -298,298zm-247 -614l0 63 106 0 0 -63 -106 0zm0 115l0 201c0,136 111,247 247,247 136,0 247,-111 247,-247l0 -201 -106 0 0 207c0,78 -63,141 -141,141 -78,0 -141,-63 -141,-141l0 -207 -106 0zm494 -52l0 -63 -106 0 0 63 106 0z"/>
 </g>
</svg>
